<?xml version="1.0" encoding="UTF-8"?>
<!DOCTYPE svg PUBLIC "-//W3C//DTD SVG 1.1//EN" "http://www.w3.org/Graphics/SVG/1.1/DTD/svg11.dtd">
<svg xmlns="http://www.w3.org/2000/svg" version="1.1" width="1000" height="1000">
<path d="
   M798.600 444.302
    A187.181 187.181 0 0 1 775.421 470.546
    A145.684 145.684 0 0 1 753.921 487.260
    A104.234 104.234 0 0 1 736.622 496.158
    A62.930 62.930 0 0 1 725.444 499.515
    A23.378 23.378 0 0 1 721.582 500.000
    A38.999 38.999 0 0 0 707.854 576.780
    A23.378 23.378 0 0 1 711.309 578.573
    A62.930 62.930 0 0 1 720.632 585.596
    A104.234 104.234 0 0 1 733.775 599.936
    A145.684 145.684 0 0 1 748.152 623.065
    A187.181 187.181 0 0 1 760.801 655.715
   L750.527 671.757
    A187.181 187.181 0 0 1 715.580 673.925
    A145.684 145.684 0 0 1 688.558 670.541
    A104.234 104.234 0 0 1 670.034 664.601
    A62.930 62.930 0 0 1 659.756 659.070
    A23.378 23.378 0 0 1 656.682 656.682
    A38.999 38.999 0 0 0 592.684 701.267
    A23.378 23.378 0 0 1 593.858 704.977
    A62.930 62.930 0 0 1 595.485 716.535
    A104.234 104.234 0 0 1 594.639 735.970
    A145.684 145.684 0 0 1 588.450 762.490
    A187.181 187.181 0 0 1 574.307 794.521
   L555.698 798.600
    A187.181 187.181 0 0 1 529.454 775.421
    A145.684 145.684 0 0 1 512.740 753.921
    A104.234 104.234 0 0 1 503.842 736.622
    A62.930 62.930 0 0 1 500.485 725.444
    A23.378 23.378 0 0 1 500.000 721.582
    A38.999 38.999 0 0 0 423.220 707.854
    A23.378 23.378 0 0 1 421.427 711.309
    A62.930 62.930 0 0 1 414.404 720.632
    A104.234 104.234 0 0 1 400.064 733.775
    A145.684 145.684 0 0 1 376.935 748.152
    A187.181 187.181 0 0 1 344.285 760.801
   L328.243 750.527
    A187.181 187.181 0 0 1 326.075 715.580
    A145.684 145.684 0 0 1 329.459 688.558
    A104.234 104.234 0 0 1 335.399 670.034
    A62.930 62.930 0 0 1 340.930 659.756
    A23.378 23.378 0 0 1 343.318 656.682
    A38.999 38.999 0 0 0 298.733 592.684
    A23.378 23.378 0 0 1 295.023 593.858
    A62.930 62.930 0 0 1 283.465 595.485
    A104.234 104.234 0 0 1 264.030 594.639
    A145.684 145.684 0 0 1 237.510 588.450
    A187.181 187.181 0 0 1 205.479 574.307
   L201.400 555.698
    A187.181 187.181 0 0 1 224.579 529.454
    A145.684 145.684 0 0 1 246.079 512.740
    A104.234 104.234 0 0 1 263.378 503.842
    A62.930 62.930 0 0 1 274.556 500.485
    A23.378 23.378 0 0 1 278.418 500.000
    A38.999 38.999 0 0 0 292.146 423.220
    A23.378 23.378 0 0 1 288.691 421.427
    A62.930 62.930 0 0 1 279.368 414.404
    A104.234 104.234 0 0 1 266.225 400.064
    A145.684 145.684 0 0 1 251.848 376.935
    A187.181 187.181 0 0 1 239.199 344.285
   L249.473 328.243
    A187.181 187.181 0 0 1 284.420 326.075
    A145.684 145.684 0 0 1 311.442 329.459
    A104.234 104.234 0 0 1 329.966 335.399
    A62.930 62.930 0 0 1 340.244 340.930
    A23.378 23.378 0 0 1 343.318 343.318
    A38.999 38.999 0 0 0 407.316 298.733
    A23.378 23.378 0 0 1 406.142 295.023
    A62.930 62.930 0 0 1 404.515 283.465
    A104.234 104.234 0 0 1 405.361 264.030
    A145.684 145.684 0 0 1 411.550 237.510
    A187.181 187.181 0 0 1 425.693 205.479
   L444.302 201.400
    A187.181 187.181 0 0 1 470.546 224.579
    A145.684 145.684 0 0 1 487.260 246.079
    A104.234 104.234 0 0 1 496.158 263.378
    A62.930 62.930 0 0 1 499.515 274.556
    A23.378 23.378 0 0 1 500.000 278.418
    A38.999 38.999 0 0 0 576.780 292.146
    A23.378 23.378 0 0 1 578.573 288.691
    A62.930 62.930 0 0 1 585.596 279.368
    A104.234 104.234 0 0 1 599.936 266.225
    A145.684 145.684 0 0 1 623.065 251.848
    A187.181 187.181 0 0 1 655.715 239.199
   L671.757 249.473
    A187.181 187.181 0 0 1 673.925 284.420
    A145.684 145.684 0 0 1 670.541 311.442
    A104.234 104.234 0 0 1 664.601 329.966
    A62.930 62.930 0 0 1 659.070 340.244
    A23.378 23.378 0 0 1 656.682 343.318
    A38.999 38.999 0 0 0 701.267 407.316
    A23.378 23.378 0 0 1 704.977 406.142
    A62.930 62.930 0 0 1 716.535 404.515
    A104.234 104.234 0 0 1 735.970 405.361
    A145.684 145.684 0 0 1 762.490 411.550
    A187.181 187.181 0 0 1 794.521 425.693
" stroke="black" stroke-width="1" fill-opacity="0.0" />
</svg>
