<?xml version="1.0" encoding="UTF-8"?>
<!DOCTYPE svg PUBLIC "-//W3C//DTD SVG 1.1//EN" "http://www.w3.org/Graphics/SVG/1.1/DTD/svg11.dtd">
<svg xmlns="http://www.w3.org/2000/svg" version="1.1" width="1000" height="1000">
<path d="
   M515.771 496.298
    A10.479 10.479 0 0 1 514.486 498.028
    A8.156 8.156 0 0 1 513.233 499.143
    A5.835 5.835 0 0 1 512.196 499.740
    A3.523 3.523 0 0 1 511.514 499.967
    A1.309 1.309 0 0 1 511.276 500.000
    A1.630 1.630 0 0 0 510.805 503.226
    A1.309 1.309 0 0 1 511.023 503.325
    A3.523 3.523 0 0 1 511.612 503.737
    A5.835 5.835 0 0 1 512.435 504.607
    A8.156 8.156 0 0 1 513.317 506.033
    A10.479 10.479 0 0 1 514.053 508.059
   L513.770 508.534
    A10.479 10.479 0 0 1 511.637 508.849
    A8.156 8.156 0 0 1 509.964 508.751
    A5.835 5.835 0 0 1 508.807 508.440
    A3.523 3.523 0 0 1 508.165 508.118
    A1.309 1.309 0 0 1 507.974 507.974
    A1.630 1.630 0 0 0 505.360 509.921
    A1.309 1.309 0 0 1 505.444 510.146
    A3.523 3.523 0 0 1 505.568 510.853
    A5.835 5.835 0 0 1 505.535 512.051
    A8.156 8.156 0 0 1 505.151 513.682
    A10.479 10.479 0 0 1 504.239 515.636
   L503.702 515.771
    A10.479 10.479 0 0 1 501.972 514.486
    A8.156 8.156 0 0 1 500.857 513.233
    A5.835 5.835 0 0 1 500.260 512.196
    A3.523 3.523 0 0 1 500.033 511.514
    A1.309 1.309 0 0 1 500.000 511.276
    A1.630 1.630 0 0 0 496.774 510.805
    A1.309 1.309 0 0 1 496.675 511.023
    A3.523 3.523 0 0 1 496.263 511.612
    A5.835 5.835 0 0 1 495.393 512.435
    A8.156 8.156 0 0 1 493.967 513.317
    A10.479 10.479 0 0 1 491.941 514.053
   L491.466 513.770
    A10.479 10.479 0 0 1 491.151 511.637
    A8.156 8.156 0 0 1 491.249 509.964
    A5.835 5.835 0 0 1 491.560 508.807
    A3.523 3.523 0 0 1 491.882 508.165
    A1.309 1.309 0 0 1 492.026 507.974
    A1.630 1.630 0 0 0 490.079 505.360
    A1.309 1.309 0 0 1 489.854 505.444
    A3.523 3.523 0 0 1 489.147 505.568
    A5.835 5.835 0 0 1 487.949 505.535
    A8.156 8.156 0 0 1 486.318 505.151
    A10.479 10.479 0 0 1 484.364 504.239
   L484.229 503.702
    A10.479 10.479 0 0 1 485.514 501.972
    A8.156 8.156 0 0 1 486.767 500.857
    A5.835 5.835 0 0 1 487.804 500.260
    A3.523 3.523 0 0 1 488.486 500.033
    A1.309 1.309 0 0 1 488.724 500.000
    A1.630 1.630 0 0 0 489.195 496.774
    A1.309 1.309 0 0 1 488.977 496.675
    A3.523 3.523 0 0 1 488.388 496.263
    A5.835 5.835 0 0 1 487.565 495.393
    A8.156 8.156 0 0 1 486.683 493.967
    A10.479 10.479 0 0 1 485.947 491.941
   L486.230 491.466
    A10.479 10.479 0 0 1 488.363 491.151
    A8.156 8.156 0 0 1 490.036 491.249
    A5.835 5.835 0 0 1 491.193 491.560
    A3.523 3.523 0 0 1 491.835 491.882
    A1.309 1.309 0 0 1 492.026 492.026
    A1.630 1.630 0 0 0 494.640 490.079
    A1.309 1.309 0 0 1 494.556 489.854
    A3.523 3.523 0 0 1 494.432 489.147
    A5.835 5.835 0 0 1 494.465 487.949
    A8.156 8.156 0 0 1 494.849 486.318
    A10.479 10.479 0 0 1 495.761 484.364
   L496.298 484.229
    A10.479 10.479 0 0 1 498.028 485.514
    A8.156 8.156 0 0 1 499.143 486.767
    A5.835 5.835 0 0 1 499.740 487.804
    A3.523 3.523 0 0 1 499.967 488.486
    A1.309 1.309 0 0 1 500.000 488.724
    A1.630 1.630 0 0 0 503.226 489.195
    A1.309 1.309 0 0 1 503.325 488.977
    A3.523 3.523 0 0 1 503.737 488.388
    A5.835 5.835 0 0 1 504.607 487.565
    A8.156 8.156 0 0 1 506.033 486.683
    A10.479 10.479 0 0 1 508.059 485.947
   L508.534 486.230
    A10.479 10.479 0 0 1 508.849 488.363
    A8.156 8.156 0 0 1 508.751 490.036
    A5.835 5.835 0 0 1 508.440 491.193
    A3.523 3.523 0 0 1 508.118 491.835
    A1.309 1.309 0 0 1 507.974 492.026
    A1.630 1.630 0 0 0 509.921 494.640
    A1.309 1.309 0 0 1 510.146 494.556
    A3.523 3.523 0 0 1 510.853 494.432
    A5.835 5.835 0 0 1 512.051 494.465
    A8.156 8.156 0 0 1 513.682 494.849
    A10.479 10.479 0 0 1 515.636 495.761
" stroke="black" stroke-width="1" fill-opacity="0.0" />
</svg>
