<?xml version="1.0" encoding="UTF-8"?>
<!DOCTYPE svg PUBLIC "-//W3C//DTD SVG 1.1//EN" "http://www.w3.org/Graphics/SVG/1.1/DTD/svg11.dtd">
<svg xmlns="http://www.w3.org/2000/svg" version="1.1" width="1000" height="1000">
<path d="
   M719.858 492.109
    A88.301 88.301 0 0 1 711.956 495.923
    A68.725 68.725 0 0 1 705.546 498.268
    A49.171 49.171 0 0 1 700.825 499.484
    A29.686 29.686 0 0 1 697.935 499.935
    A11.027 11.027 0 0 1 696.962 500.000
    A15.101 15.101 0 0 0 694.646 530.113
    A11.027 11.027 0 0 1 695.598 530.326
    A29.686 29.686 0 0 1 698.385 531.214
    A49.171 49.171 0 0 1 702.864 533.137
    A68.725 68.725 0 0 1 708.840 536.435
    A88.301 88.301 0 0 1 716.067 541.413
   L711.536 560.435
    A88.301 88.301 0 0 1 702.842 561.621
    A68.725 68.725 0 0 1 696.021 561.870
    A49.171 49.171 0 0 1 691.155 561.568
    A29.686 29.686 0 0 1 688.267 561.104
    A11.027 11.027 0 0 1 687.322 560.864
    A15.101 15.101 0 0 0 675.814 588.788
    A11.027 11.027 0 0 1 676.653 589.285
    A29.686 29.686 0 0 1 679.030 590.990
    A49.171 49.171 0 0 1 682.696 594.204
    A68.725 68.725 0 0 1 687.360 599.187
    A88.301 88.301 0 0 1 692.695 606.154
   L682.508 622.845
    A88.301 88.301 0 0 1 673.872 621.286
    A68.725 68.725 0 0 1 667.308 619.416
    A49.171 49.171 0 0 1 662.774 617.625
    A29.686 29.686 0 0 1 660.170 616.291
    A11.027 11.027 0 0 1 659.345 615.771
    A15.101 15.101 0 0 0 639.772 638.772
    A11.027 11.027 0 0 1 640.417 639.504
    A29.686 29.686 0 0 1 642.150 641.860
    A49.171 49.171 0 0 1 644.643 646.049
    A68.725 68.725 0 0 1 647.540 652.229
    A88.301 88.301 0 0 1 650.460 660.505
   L635.614 673.231
    A88.301 88.301 0 0 1 627.883 669.079
    A68.725 68.725 0 0 1 622.218 665.272
    A49.171 49.171 0 0 1 618.459 662.167
    A29.686 29.686 0 0 1 616.395 660.094
    A11.027 11.027 0 0 1 615.771 659.345
    A15.101 15.101 0 0 0 590.048 675.172
    A11.027 11.027 0 0 1 590.435 676.067
    A29.686 29.686 0 0 1 591.355 678.844
    A49.171 49.171 0 0 1 592.432 683.598
    A68.725 68.725 0 0 1 593.277 690.371
    A88.301 88.301 0 0 1 593.498 699.144
   L575.445 706.659
    A88.301 88.301 0 0 1 569.375 700.322
    A68.725 68.725 0 0 1 565.164 694.950
    A49.171 49.171 0 0 1 562.549 690.836
    A29.686 29.686 0 0 1 561.227 688.227
    A11.027 11.027 0 0 1 560.864 687.322
    A15.101 15.101 0 0 0 531.509 694.425
    A11.027 11.027 0 0 1 531.601 695.396
    A29.686 29.686 0 0 1 531.618 698.321
    A49.171 49.171 0 0 1 531.173 703.176
    A68.725 68.725 0 0 1 529.884 709.878
    A88.301 88.301 0 0 1 527.383 718.289
   L507.891 719.858
    A88.301 88.301 0 0 1 504.077 711.956
    A68.725 68.725 0 0 1 501.732 705.546
    A49.171 49.171 0 0 1 500.516 700.825
    A29.686 29.686 0 0 1 500.065 697.935
    A11.027 11.027 0 0 1 500.000 696.962
    A15.101 15.101 0 0 0 469.887 694.646
    A11.027 11.027 0 0 1 469.674 695.598
    A29.686 29.686 0 0 1 468.786 698.385
    A49.171 49.171 0 0 1 466.863 702.864
    A68.725 68.725 0 0 1 463.565 708.840
    A88.301 88.301 0 0 1 458.587 716.067
   L439.565 711.536
    A88.301 88.301 0 0 1 438.379 702.842
    A68.725 68.725 0 0 1 438.130 696.021
    A49.171 49.171 0 0 1 438.432 691.155
    A29.686 29.686 0 0 1 438.896 688.267
    A11.027 11.027 0 0 1 439.136 687.322
    A15.101 15.101 0 0 0 411.212 675.814
    A11.027 11.027 0 0 1 410.715 676.653
    A29.686 29.686 0 0 1 409.010 679.030
    A49.171 49.171 0 0 1 405.796 682.696
    A68.725 68.725 0 0 1 400.813 687.360
    A88.301 88.301 0 0 1 393.846 692.695
   L377.155 682.508
    A88.301 88.301 0 0 1 378.714 673.872
    A68.725 68.725 0 0 1 380.584 667.308
    A49.171 49.171 0 0 1 382.375 662.774
    A29.686 29.686 0 0 1 383.709 660.170
    A11.027 11.027 0 0 1 384.229 659.345
    A15.101 15.101 0 0 0 361.228 639.772
    A11.027 11.027 0 0 1 360.496 640.417
    A29.686 29.686 0 0 1 358.140 642.150
    A49.171 49.171 0 0 1 353.951 644.643
    A68.725 68.725 0 0 1 347.771 647.540
    A88.301 88.301 0 0 1 339.495 650.460
   L326.769 635.614
    A88.301 88.301 0 0 1 330.921 627.883
    A68.725 68.725 0 0 1 334.728 622.218
    A49.171 49.171 0 0 1 337.833 618.459
    A29.686 29.686 0 0 1 339.906 616.395
    A11.027 11.027 0 0 1 340.655 615.771
    A15.101 15.101 0 0 0 324.828 590.048
    A11.027 11.027 0 0 1 323.933 590.435
    A29.686 29.686 0 0 1 321.156 591.355
    A49.171 49.171 0 0 1 316.402 592.432
    A68.725 68.725 0 0 1 309.629 593.277
    A88.301 88.301 0 0 1 300.856 593.498
   L293.341 575.445
    A88.301 88.301 0 0 1 299.678 569.375
    A68.725 68.725 0 0 1 305.050 565.164
    A49.171 49.171 0 0 1 309.164 562.549
    A29.686 29.686 0 0 1 311.773 561.227
    A11.027 11.027 0 0 1 312.678 560.864
    A15.101 15.101 0 0 0 305.575 531.509
    A11.027 11.027 0 0 1 304.604 531.601
    A29.686 29.686 0 0 1 301.679 531.618
    A49.171 49.171 0 0 1 296.824 531.173
    A68.725 68.725 0 0 1 290.122 529.884
    A88.301 88.301 0 0 1 281.711 527.383
   L280.142 507.891
    A88.301 88.301 0 0 1 288.044 504.077
    A68.725 68.725 0 0 1 294.454 501.732
    A49.171 49.171 0 0 1 299.175 500.516
    A29.686 29.686 0 0 1 302.065 500.065
    A11.027 11.027 0 0 1 303.038 500.000
    A15.101 15.101 0 0 0 305.354 469.887
    A11.027 11.027 0 0 1 304.402 469.674
    A29.686 29.686 0 0 1 301.615 468.786
    A49.171 49.171 0 0 1 297.136 466.863
    A68.725 68.725 0 0 1 291.160 463.565
    A88.301 88.301 0 0 1 283.933 458.587
   L288.464 439.565
    A88.301 88.301 0 0 1 297.158 438.379
    A68.725 68.725 0 0 1 303.979 438.130
    A49.171 49.171 0 0 1 308.845 438.432
    A29.686 29.686 0 0 1 311.733 438.896
    A11.027 11.027 0 0 1 312.678 439.136
    A15.101 15.101 0 0 0 324.186 411.212
    A11.027 11.027 0 0 1 323.347 410.715
    A29.686 29.686 0 0 1 320.970 409.010
    A49.171 49.171 0 0 1 317.304 405.796
    A68.725 68.725 0 0 1 312.640 400.813
    A88.301 88.301 0 0 1 307.305 393.846
   L317.492 377.155
    A88.301 88.301 0 0 1 326.128 378.714
    A68.725 68.725 0 0 1 332.692 380.584
    A49.171 49.171 0 0 1 337.226 382.375
    A29.686 29.686 0 0 1 339.830 383.709
    A11.027 11.027 0 0 1 340.655 384.229
    A15.101 15.101 0 0 0 360.228 361.228
    A11.027 11.027 0 0 1 359.583 360.496
    A29.686 29.686 0 0 1 357.850 358.140
    A49.171 49.171 0 0 1 355.357 353.951
    A68.725 68.725 0 0 1 352.460 347.771
    A88.301 88.301 0 0 1 349.540 339.495
   L364.386 326.769
    A88.301 88.301 0 0 1 372.117 330.921
    A68.725 68.725 0 0 1 377.782 334.728
    A49.171 49.171 0 0 1 381.541 337.833
    A29.686 29.686 0 0 1 383.605 339.906
    A11.027 11.027 0 0 1 384.229 340.655
    A15.101 15.101 0 0 0 409.952 324.828
    A11.027 11.027 0 0 1 409.565 323.933
    A29.686 29.686 0 0 1 408.645 321.156
    A49.171 49.171 0 0 1 407.568 316.402
    A68.725 68.725 0 0 1 406.723 309.629
    A88.301 88.301 0 0 1 406.502 300.856
   L424.555 293.341
    A88.301 88.301 0 0 1 430.625 299.678
    A68.725 68.725 0 0 1 434.836 305.050
    A49.171 49.171 0 0 1 437.451 309.164
    A29.686 29.686 0 0 1 438.773 311.773
    A11.027 11.027 0 0 1 439.136 312.678
    A15.101 15.101 0 0 0 468.491 305.575
    A11.027 11.027 0 0 1 468.399 304.604
    A29.686 29.686 0 0 1 468.382 301.679
    A49.171 49.171 0 0 1 468.827 296.824
    A68.725 68.725 0 0 1 470.116 290.122
    A88.301 88.301 0 0 1 472.617 281.711
   L492.109 280.142
    A88.301 88.301 0 0 1 495.923 288.044
    A68.725 68.725 0 0 1 498.268 294.454
    A49.171 49.171 0 0 1 499.484 299.175
    A29.686 29.686 0 0 1 499.935 302.065
    A11.027 11.027 0 0 1 500.000 303.038
    A15.101 15.101 0 0 0 530.113 305.354
    A11.027 11.027 0 0 1 530.326 304.402
    A29.686 29.686 0 0 1 531.214 301.615
    A49.171 49.171 0 0 1 533.137 297.136
    A68.725 68.725 0 0 1 536.435 291.160
    A88.301 88.301 0 0 1 541.413 283.933
   L560.435 288.464
    A88.301 88.301 0 0 1 561.621 297.158
    A68.725 68.725 0 0 1 561.870 303.979
    A49.171 49.171 0 0 1 561.568 308.845
    A29.686 29.686 0 0 1 561.104 311.733
    A11.027 11.027 0 0 1 560.864 312.678
    A15.101 15.101 0 0 0 588.788 324.186
    A11.027 11.027 0 0 1 589.285 323.347
    A29.686 29.686 0 0 1 590.990 320.970
    A49.171 49.171 0 0 1 594.204 317.304
    A68.725 68.725 0 0 1 599.187 312.640
    A88.301 88.301 0 0 1 606.154 307.305
   L622.845 317.492
    A88.301 88.301 0 0 1 621.286 326.128
    A68.725 68.725 0 0 1 619.416 332.692
    A49.171 49.171 0 0 1 617.625 337.226
    A29.686 29.686 0 0 1 616.291 339.830
    A11.027 11.027 0 0 1 615.771 340.655
    A15.101 15.101 0 0 0 638.772 360.228
    A11.027 11.027 0 0 1 639.504 359.583
    A29.686 29.686 0 0 1 641.860 357.850
    A49.171 49.171 0 0 1 646.049 355.357
    A68.725 68.725 0 0 1 652.229 352.460
    A88.301 88.301 0 0 1 660.505 349.540
   L673.231 364.386
    A88.301 88.301 0 0 1 669.079 372.117
    A68.725 68.725 0 0 1 665.272 377.782
    A49.171 49.171 0 0 1 662.167 381.541
    A29.686 29.686 0 0 1 660.094 383.605
    A11.027 11.027 0 0 1 659.345 384.229
    A15.101 15.101 0 0 0 675.172 409.952
    A11.027 11.027 0 0 1 676.067 409.565
    A29.686 29.686 0 0 1 678.844 408.645
    A49.171 49.171 0 0 1 683.598 407.568
    A68.725 68.725 0 0 1 690.371 406.723
    A88.301 88.301 0 0 1 699.144 406.502
   L706.659 424.555
    A88.301 88.301 0 0 1 700.322 430.625
    A68.725 68.725 0 0 1 694.950 434.836
    A49.171 49.171 0 0 1 690.836 437.451
    A29.686 29.686 0 0 1 688.227 438.773
    A11.027 11.027 0 0 1 687.322 439.136
    A15.101 15.101 0 0 0 694.425 468.491
    A11.027 11.027 0 0 1 695.396 468.399
    A29.686 29.686 0 0 1 698.321 468.382
    A49.171 49.171 0 0 1 703.176 468.827
    A68.725 68.725 0 0 1 709.878 470.116
    A88.301 88.301 0 0 1 718.289 472.617
" stroke="black" stroke-width="1" fill-opacity="0.0" />
</svg>
