999
dxfrw 0.6.3
  0
SECTION
  2
HEADER
  9
$ACADVER
  1
AC1021
  9
$DWGCODEPAGE
  3
ANSI_1252
  9
$INSBASE
 10
0
 20
0
 30
0
  9
$EXTMIN
 10
-15.7709999999606
 20
-21.08491512250632
 30
0
  9
$EXTMAX
 10
201
 20
5.861917528305618
 30
0
  9
$LIMMIN
 10
0
 20
0
  9
$LIMMAX
 10
420
 20
297
  9
$ORTHOMODE
 70
    0
  9
$REGENMODE
 70
    1
  9
$FILLMODE
 70
    1
  9
$QTEXTMODE
 70
    0
  9
$MIRRTEXT
 70
    0
  9
$LTSCALE
 40
1
  9
$ATTMODE
 70
    0
  9
$TEXTSIZE
 40
2.5
  9
$TRACEWID
 40
15.68
  9
$TEXTSTYLE
  7
STANDARD
  9
$CLAYER
  8
24-tooth
  9
$CELTYPE
  6
BYLAYER
  9
$CECOLOR
 62
  256
  9
$CELTSCALE
 40
1
  9
$DISPSILH
 70
    0
  9
$DIMSCALE
 40
2.5
  9
$DIMASZ
 40
2.5
  9
$DIMEXO
 40
0.625
  9
$DIMDLI
 40
3.75
  9
$DIMRND
 40
0
  9
$DIMDLE
 40
0
  9
$DIMEXE
 40
1.25
  9
$DIMTP
 40
0
  9
$DIMTM
 40
0
  9
$DIMTXT
 40
2.5
  9
$DIMCEN
 40
2.5
  9
$DIMTSZ
 40
0
  9
$DIMTOL
 70
    0
  9
$DIMLIM
 70
    0
  9
$DIMTIH
 70
    0
  9
$DIMTOH
 70
    0
  9
$DIMSE1
 70
    0
  9
$DIMSE2
 70
    0
  9
$DIMTAD
 70
    1
  9
$DIMZIN
 70
    8
  9
$DIMBLK
  1

  9
$DIMASO
 70
    1
  9
$DIMSHO
 70
    1
  9
$DIMPOST
  1

  9
$DIMAPOST
  1

  9
$DIMALT
 70
    0
  9
$DIMALTD
 70
    3
  9
$DIMALTF
 40
0.03937
  9
$DIMLFAC
 40
1
  9
$DIMTOFL
 70
    1
  9
$DIMTVP
 40
0
  9
$DIMTIX
 70
    0
  9
$DIMSOXD
 70
    0
  9
$DIMSAH
 70
    0
  9
$DIMBLK1
  1

  9
$DIMBLK2
  1

  9
$DIMSTYLE
  2
Standard
  9
$DIMCLRD
 70
    0
  9
$DIMCLRE
 70
    0
  9
$DIMCLRT
 70
    0
  9
$DIMTFAC
 40
1
  9
$DIMGAP
 40
0.625
  9
$DIMJUST
 70
    0
  9
$DIMSD1
 70
    0
  9
$DIMSD2
 70
    0
  9
$DIMTOLJ
 70
    0
  9
$DIMTZIN
 70
    8
  9
$DIMALTZ
 70
    0
  9
$DIMALTTZ
 70
    0
  9
$DIMUPT
 70
    0
  9
$DIMDEC
 70
    2
  9
$DIMTDEC
 70
    2
  9
$DIMALTU
 70
    2
  9
$DIMALTTD
 70
    3
  9
$DIMTXSTY
  7
STANDARD
  9
$DIMAUNIT
 70
    0
  9
$DIMADEC
 70
    0
  9
$DIMALTRND
 40
0
  9
$DIMAZIN
 70
    0
  9
$DIMDSEP
 70
   44
  9
$DIMATFIT
 70
    3
  9
$DIMFRAC
 70
    0
  9
$DIMLDRBLK
  1
STANDARD
  9
$DIMLUNIT
 70
    2
  9
$DIMLWD
 70
   -2
  9
$DIMLWE
 70
   -2
  9
$DIMTMOVE
 70
    0
  9
$DIMFXL
 40
1
  9
$DIMFXLON
 70
    0
  9
$DIMJOGANG
 40
0.7854
  9
$DIMTFILL
 70
    0
  9
$DIMTFILLCLR
 70
    0
  9
$DIMARCSYM
 70
    0
  9
$DIMLTYPE
  6

  9
$DIMLTEX1
  6

  9
$DIMLTEX2
  6

  9
$LUNITS
 70
    2
  9
$LUPREC
 70
    4
  9
$SKETCHINC
 40
1
  9
$FILLETRAD
 40
0
  9
$AUNITS
 70
    0
  9
$AUPREC
 70
    2
  9
$MENU
  1
.
  9
$ELEVATION
 40
0
  9
$PELEVATION
 40
0
  9
$THICKNESS
 40
0
  9
$LIMCHECK
 70
    0
  9
$CHAMFERA
 40
0
  9
$CHAMFERB
 40
0
  9
$CHAMFERC
 40
0
  9
$CHAMFERD
 40
0
  9
$SKPOLY
 70
    0
  9
$USRTIMER
 70
    1
  9
$ANGBASE
 50
0
  9
$ANGDIR
 70
    0
  9
$PDMODE
 70
   34
  9
$PDSIZE
 40
0
  9
$PLINEWID
 40
0
  9
$SPLFRAME
 70
    0
  9
$SPLINETYPE
 70
    2
  9
$SPLINESEGS
 70
    8
  9
$HANDSEED
  5
20000
  9
$SURFTAB1
 70
    6
  9
$SURFTAB2
 70
    6
  9
$SURFTYPE
 70
    6
  9
$SURFU
 70
    6
  9
$SURFV
 70
    6
  9
$UCSBASE
  2

  9
$UCSNAME
  2

  9
$UCSORG
 10
0
 20
0
 30
0
  9
$UCSXDIR
 10
1
 20
0
 30
0
  9
$UCSYDIR
 10
0
 20
1
 30
0
  9
$UCSORTHOREF
  2

  9
$UCSORTHOVIEW
 70
    0
  9
$UCSORGTOP
 10
0
 20
0
 30
0
  9
$UCSORGBOTTOM
 10
0
 20
0
 30
0
  9
$UCSORGLEFT
 10
0
 20
0
 30
0
  9
$UCSORGRIGHT
 10
0
 20
0
 30
0
  9
$UCSORGFRONT
 10
0
 20
0
 30
0
  9
$UCSORGBACK
 10
0
 20
0
 30
0
  9
$PUCSBASE
  2

  9
$PUCSNAME
  2

  9
$PUCSORG
 10
0
 20
0
 30
0
  9
$PUCSXDIR
 10
1
 20
0
 30
0
  9
$PUCSYDIR
 10
0
 20
1
 30
0
  9
$PUCSORTHOREF
  2

  9
$PUCSORTHOVIEW
 70
    0
  9
$PUCSORGTOP
 10
0
 20
0
 30
0
  9
$PUCSORGBOTTOM
 10
0
 20
0
 30
0
  9
$PUCSORGLEFT
 10
0
 20
0
 30
0
  9
$PUCSORGRIGHT
 10
0
 20
0
 30
0
  9
$PUCSORGFRONT
 10
0
 20
0
 30
0
  9
$PUCSORGBACK
 10
0
 20
0
 30
0
  9
$USERI1
 70
    0
  9
$USERI2
 70
    0
  9
$USERI3
 70
    0
  9
$USERI4
 70
    0
  9
$USERI5
 70
    0
  9
$USERR1
 40
0
  9
$USERR2
 40
0
  9
$USERR3
 40
0
  9
$USERR4
 40
0
  9
$USERR5
 40
0
  9
$WORLDVIEW
 70
    1
  9
$SHADEDGE
 70
    3
  9
$SHADEDIF
 70
   70
  9
$TILEMODE
 70
    1
  9
$MAXACTVP
 70
   64
  9
$PINSBASE
 10
0
 20
0
 30
0
  9
$PLIMCHECK
 70
    0
  9
$PEXTMIN
 10
0
 20
0
 30
0
  9
$PEXTMAX
 10
0
 20
0
 30
0
  9
$GRIDMODE
 70
    1
  9
$SNAPSTYLE
 70
    0
  9
$PLIMMIN
 10
0
 20
0
  9
$PLIMMAX
 10
210
 20
297
  9
$UNITMODE
 70
    0
  9
$VISRETAIN
 70
    1
  9
$PLINEGEN
 70
    0
  9
$PSLTSCALE
 70
    1
  9
$TREEDEPTH
 70
 3020
  9
$CMLSTYLE
  2
Standard
  9
$CMLJUST
 70
    0
  9
$CMLSCALE
 40
20
  9
$PROXYGRAPHICS
 70
    1
  9
$MEASUREMENT
 70
    1
  9
$CELWEIGHT
370
   -1
  9
$ENDCAPS
280
    0
  9
$JOINSTYLE
280
    0
  9
$LWDISPLAY
290
    0
  9
$INSUNITS
 70
    4
  9
$HYPERLINKBASE
  1

  9
$STYLESHEET
  1

  9
$XEDIT
290
    1
  9
$CEPSNTYPE
380
    0
  9
$PSTYLEMODE
290
    1
  9
$EXTNAMES
290
    1
  9
$PSVPSCALE
 40
1
  9
$OLESTARTUP
290
    0
  9
$SORTENTS
280
  127
  9
$INDEXCTL
280
    0
  9
$HIDETEXT
280
    1
  9
$XCLIPFRAME
290
    0
  9
$HALOGAP
280
    0
  9
$OBSCOLOR
 70
  257
  9
$OBSLTYPE
280
    0
  9
$INTERSECTIONDISPLAY
280
    0
  9
$INTERSECTIONCOLOR
 70
  257
  9
$DIMASSOC
280
    1
  9
$PROJECTNAME
  1

  9
$CAMERADISPLAY
290
    0
  9
$LENSLENGTH
 40
50
  9
$CAMERAHEIGHT
 40
0
  9
$STEPSPERSEC
 40
2
  9
$STEPSIZE
 40
50
  9
$3DDWFPREC
 40
2
  9
$PSOLWIDTH
 40
5
  9
$PSOLHEIGHT
 40
80
  9
$LOFTANG1
 40
1.570796326794897
  9
$LOFTANG2
 40
1.570796326794897
  9
$LOFTMAG1
 40
0
  9
$LOFTMAG2
 40
0
  9
$LOFTPARAM
 70
    7
  9
$LOFTNORMALS
280
    1
  9
$LATITUDE
 40
1
  9
$LONGITUDE
 40
1
  9
$NORTHDIRECTION
 40
0
  9
$TIMEZONE
 70
-8000
  9
$LIGHTGLYPHDISPLAY
280
    1
  9
$TILEMODELIGHTSYNCH
280
    1
  9
$SOLIDHIST
280
    1
  9
$SHOWHIST
280
    1
  9
$DWFFRAME
280
    2
  9
$DGNFRAME
280
    0
  9
$REALWORLDSCALE
290
    1
  9
$INTERFERECOLOR
 62
    1
  9
$CSHADOW
280
    0
  9
$SHADOWPLANELOCATION
 40
0
  0
ENDSEC
  0
SECTION
  2
CLASSES
  0
ENDSEC
  0
SECTION
  2
TABLES
  0
TABLE
  2
VPORT
  5
8
330
0
100
AcDbSymbolTable
 70
    1
  0
VPORT
  5
31
330
2
100
AcDbSymbolTableRecord
100
AcDbViewportTableRecord
  2
*ACTIVE
 70
    0
 10
0
 20
0
 11
1
 21
1
 12
23.83591242385112
 22
8.327364889981354
 13
0
 23
0
 14
10
 24
10
 15
10
 25
10
 16
0
 26
0
 36
1
 17
0
 27
0
 37
0
 40
34.29190148514794
 41
2.070941336971351
 42
50
 43
0
 44
0
 50
0
 51
0
 71
    0
 72
  100
 73
    1
 74
    3
 75
    0
 76
    1
 77
    0
 78
    0
281
    0
 65
    1
110
0
120
0
130
0
111
1
121
0
131
0
112
0
122
1
132
0
 79
    0
146
0
348
10020
 60
    7
 61
    5
292
1
282
    1
141
0
142
0
 63
  250
421
3358443
  0
ENDTAB
  0
TABLE
  2
LTYPE
  5
5
330
0
100
AcDbSymbolTable
 70
    4
  0
LTYPE
  5
14
330
5
100
AcDbSymbolTableRecord
100
AcDbLinetypeTableRecord
  2
ByBlock
 70
    0
  3

 72
   65
 73
    0
 40
0
  0
LTYPE
  5
15
330
5
100
AcDbSymbolTableRecord
100
AcDbLinetypeTableRecord
  2
ByLayer
 70
    0
  3

 72
   65
 73
    0
 40
0
  0
LTYPE
  5
16
330
5
100
AcDbSymbolTableRecord
100
AcDbLinetypeTableRecord
  2
Continuous
 70
    0
  3
Solid line
 72
   65
 73
    0
 40
0
  0
LTYPE
  5
32
330
5
100
AcDbSymbolTableRecord
100
AcDbLinetypeTableRecord
  2
DOT
 70
    0
  3
Dot . . . . . . . . . . . . . . . . . . . . . .
 72
   65
 73
    2
 40
6.35
 49
0
 74
    0
 49
-6.35
 74
    0
  0
LTYPE
  5
33
330
5
100
AcDbSymbolTableRecord
100
AcDbLinetypeTableRecord
  2
DOTTINY
 70
    0
  3
Dot (.15x) .....................................
 72
   65
 73
    2
 40
0.9525
 49
0
 74
    0
 49
-0.9525
 74
    0
  0
LTYPE
  5
34
330
5
100
AcDbSymbolTableRecord
100
AcDbLinetypeTableRecord
  2
DOT2
 70
    0
  3
Dot (.5x) .....................................
 72
   65
 73
    2
 40
3.175
 49
0
 74
    0
 49
-3.175
 74
    0
  0
LTYPE
  5
35
330
5
100
AcDbSymbolTableRecord
100
AcDbLinetypeTableRecord
  2
DOTX2
 70
    0
  3
Dot (2x) .  .  .  .  .  .  .  .  .  .  .  .  .
 72
   65
 73
    2
 40
12.7
 49
0
 74
    0
 49
-12.7
 74
    0
  0
LTYPE
  5
36
330
5
100
AcDbSymbolTableRecord
100
AcDbLinetypeTableRecord
  2
DASHED
 70
    0
  3
Dashed _ _ _ _ _ _ _ _ _ _ _ _ _ _ _ _ _
 72
   65
 73
    2
 40
19.05
 49
12.7
 74
    0
 49
-6.35
 74
    0
  0
LTYPE
  5
37
330
5
100
AcDbSymbolTableRecord
100
AcDbLinetypeTableRecord
  2
DASHEDTINY
 70
    0
  3
Dashed (.15x) _ _ _ _ _ _ _ _ _ _ _ _ _ _ _ _ _
 72
   65
 73
    2
 40
2.8575
 49
1.905
 74
    0
 49
-0.9525
 74
    0
  0
LTYPE
  5
38
330
5
100
AcDbSymbolTableRecord
100
AcDbLinetypeTableRecord
  2
DASHED2
 70
    0
  3
Dashed (.5x) _ _ _ _ _ _ _ _ _ _ _ _ _ _ _ _ _
 72
   65
 73
    2
 40
9.524999999999999
 49
6.35
 74
    0
 49
-3.175
 74
    0
  0
LTYPE
  5
39
330
5
100
AcDbSymbolTableRecord
100
AcDbLinetypeTableRecord
  2
DASHEDX2
 70
    0
  3
Dashed (2x) ____  ____  ____  ____  ____  ___
 72
   65
 73
    2
 40
38.09999999999999
 49
25.4
 74
    0
 49
-12.7
 74
    0
  0
LTYPE
  5
3A
330
5
100
AcDbSymbolTableRecord
100
AcDbLinetypeTableRecord
  2
DASHDOT
 70
    0
  3
Dash dot __ . __ . __ . __ . __ . __ . __ . __
 72
   65
 73
    4
 40
25.4
 49
12.7
 74
    0
 49
-6.35
 74
    0
 49
0
 74
    0
 49
-6.35
 74
    0
  0
LTYPE
  5
3B
330
5
100
AcDbSymbolTableRecord
100
AcDbLinetypeTableRecord
  2
DASHDOTTINY
 70
    0
  3
Dash dot (.15x) _._._._._._._._._._._._._._._.
 72
   65
 73
    4
 40
3.81
 49
1.905
 74
    0
 49
-0.9525
 74
    0
 49
0
 74
    0
 49
-0.9525
 74
    0
  0
LTYPE
  5
3C
330
5
100
AcDbSymbolTableRecord
100
AcDbLinetypeTableRecord
  2
DASHDOT2
 70
    0
  3
Dash dot (.5x) _._._._._._._._._._._._._._._.
 72
   65
 73
    4
 40
12.7
 49
6.35
 74
    0
 49
-3.175
 74
    0
 49
0
 74
    0
 49
-3.175
 74
    0
  0
LTYPE
  5
3D
330
5
100
AcDbSymbolTableRecord
100
AcDbLinetypeTableRecord
  2
DASHDOTX2
 70
    0
  3
Dash dot (2x) ____  .  ____  .  ____  .  ___
 72
   65
 73
    4
 40
50.8
 49
25.4
 74
    0
 49
-12.7
 74
    0
 49
0
 74
    0
 49
-12.7
 74
    0
  0
LTYPE
  5
3E
330
5
100
AcDbSymbolTableRecord
100
AcDbLinetypeTableRecord
  2
DIVIDE
 70
    0
  3
Divide ____ . . ____ . . ____ . . ____ . . ____
 72
   65
 73
    6
 40
31.75
 49
12.7
 74
    0
 49
-6.35
 74
    0
 49
0
 74
    0
 49
-6.35
 74
    0
 49
0
 74
    0
 49
-6.35
 74
    0
  0
LTYPE
  5
3F
330
5
100
AcDbSymbolTableRecord
100
AcDbLinetypeTableRecord
  2
DIVIDETINY
 70
    0
  3
Divide (.15x) __..__..__..__..__..__..__..__.._
 72
   65
 73
    6
 40
4.7625
 49
1.905
 74
    0
 49
-0.9525
 74
    0
 49
0
 74
    0
 49
-0.9525
 74
    0
 49
0
 74
    0
 49
-0.9525
 74
    0
  0
LTYPE
  5
40
330
5
100
AcDbSymbolTableRecord
100
AcDbLinetypeTableRecord
  2
DIVIDE2
 70
    0
  3
Divide (.5x) __..__..__..__..__..__..__..__.._
 72
   65
 73
    6
 40
15.875
 49
6.35
 74
    0
 49
-3.175
 74
    0
 49
0
 74
    0
 49
-3.175
 74
    0
 49
0
 74
    0
 49
-3.175
 74
    0
  0
LTYPE
  5
41
330
5
100
AcDbSymbolTableRecord
100
AcDbLinetypeTableRecord
  2
DIVIDEX2
 70
    0
  3
Divide (2x) ________  .  .  ________  .  .  _
 72
   65
 73
    6
 40
63.5
 49
25.4
 74
    0
 49
-12.7
 74
    0
 49
0
 74
    0
 49
-12.7
 74
    0
 49
0
 74
    0
 49
-12.7
 74
    0
  0
LTYPE
  5
42
330
5
100
AcDbSymbolTableRecord
100
AcDbLinetypeTableRecord
  2
BORDER
 70
    0
  3
Border __ __ . __ __ . __ __ . __ __ . __ __ .
 72
   65
 73
    6
 40
44.45
 49
12.7
 74
    0
 49
-6.35
 74
    0
 49
12.7
 74
    0
 49
-6.35
 74
    0
 49
0
 74
    0
 49
-6.35
 74
    0
  0
LTYPE
  5
43
330
5
100
AcDbSymbolTableRecord
100
AcDbLinetypeTableRecord
  2
BORDERTINY
 70
    0
  3
Border (.15x) __.__.__.__.__.__.__.__.__.__.__.
 72
   65
 73
    6
 40
6.6675
 49
1.905
 74
    0
 49
-0.9525
 74
    0
 49
1.905
 74
    0
 49
-0.9525
 74
    0
 49
0
 74
    0
 49
-0.9525
 74
    0
  0
LTYPE
  5
44
330
5
100
AcDbSymbolTableRecord
100
AcDbLinetypeTableRecord
  2
BORDER2
 70
    0
  3
Border (.5x) __.__.__.__.__.__.__.__.__.__.__.
 72
   65
 73
    6
 40
22.225
 49
6.35
 74
    0
 49
-3.175
 74
    0
 49
6.35
 74
    0
 49
-3.175
 74
    0
 49
0
 74
    0
 49
-3.175
 74
    0
  0
LTYPE
  5
45
330
5
100
AcDbSymbolTableRecord
100
AcDbLinetypeTableRecord
  2
BORDERX2
 70
    0
  3
Border (2x) ____  ____  .  ____  ____  .  ___
 72
   65
 73
    6
 40
88.89999999999999
 49
25.4
 74
    0
 49
-12.7
 74
    0
 49
25.4
 74
    0
 49
-12.7
 74
    0
 49
0
 74
    0
 49
-12.7
 74
    0
  0
LTYPE
  5
46
330
5
100
AcDbSymbolTableRecord
100
AcDbLinetypeTableRecord
  2
CENTER
 70
    0
  3
Center ____ _ ____ _ ____ _ ____ _ ____ _ ____
 72
   65
 73
    4
 40
50.8
 49
31.75
 74
    0
 49
-6.35
 74
    0
 49
6.35
 74
    0
 49
-6.35
 74
    0
  0
LTYPE
  5
47
330
5
100
AcDbSymbolTableRecord
100
AcDbLinetypeTableRecord
  2
CENTERTINY
 70
    0
  3
Center (.15x) ___ _ ___ _ ___ _ ___ _ ___ _ ___
 72
   65
 73
    4
 40
7.619999999999999
 49
4.7625
 74
    0
 49
-0.9525
 74
    0
 49
0.9525
 74
    0
 49
-0.9525
 74
    0
  0
LTYPE
  5
48
330
5
100
AcDbSymbolTableRecord
100
AcDbLinetypeTableRecord
  2
CENTER2
 70
    0
  3
Center (.5x) ___ _ ___ _ ___ _ ___ _ ___ _ ___
 72
   65
 73
    4
 40
28.575
 49
19.05
 74
    0
 49
-3.175
 74
    0
 49
3.175
 74
    0
 49
-3.175
 74
    0
  0
LTYPE
  5
49
330
5
100
AcDbSymbolTableRecord
100
AcDbLinetypeTableRecord
  2
CENTERX2
 70
    0
  3
Center (2x) ________  __  ________  __  _____
 72
   65
 73
    4
 40
101.6
 49
63.5
 74
    0
 49
-12.7
 74
    0
 49
12.7
 74
    0
 49
-12.7
 74
    0
  0
ENDTAB
  0
TABLE
  2
LAYER
  5
2
330
0
100
AcDbSymbolTable
 70
    1
  0
LAYER
  5
10
330
2
100
AcDbSymbolTableRecord
100
AcDbLayerTableRecord
  2
0
 70
    0
 62
    7
  6
CONTINUOUS
370
   -3
390
F
  0
LAYER
  5
4A
330
2
100
AcDbSymbolTableRecord
100
AcDbLayerTableRecord
  2
24-tooth
 70
    0
 62
    5
  6
CONTINUOUS
370
    0
390
F
  0
LAYER
  5
4B
330
2
100
AcDbSymbolTableRecord
100
AcDbLayerTableRecord
  2
drill
 70
    0
 62
    1
  6
CONTINUOUS
370
    0
390
F
  0
LAYER
  5
4C
330
2
100
AcDbSymbolTableRecord
100
AcDbLayerTableRecord
  2
drill construct
 70
    0
 62
    2
  6
CONTINUOUS
370
    0
390
F
  0
LAYER
  5
4D
330
2
100
AcDbSymbolTableRecord
100
AcDbLayerTableRecord
  2
mill construct
 70
    0
 62
    4
  6
CONTINUOUS
370
    0
390
F
  0
LAYER
  5
4E
330
2
100
AcDbSymbolTableRecord
100
AcDbLayerTableRecord
  2
mill path
 70
    0
 62
    3
  6
CONTINUOUS
370
    0
390
F
  0
LAYER
  5
4F
330
2
100
AcDbSymbolTableRecord
100
AcDbLayerTableRecord
  2
mill path2
 70
    0
 62
    6
  6
CONTINUOUS
370
    0
390
F
  0
ENDTAB
  0
TABLE
  2
STYLE
  5
3
330
0
100
AcDbSymbolTable
 70
    3
  0
STYLE
  5
50
330
2
100
AcDbSymbolTableRecord
100
AcDbTextStyleTableRecord
  2
Standard
 70
    0
 40
0
 41
1
 50
0
 71
    0
 42
1
  3
txt
  4

  0
ENDTAB
  0
TABLE
  2
VIEW
  5
6
330
0
100
AcDbSymbolTable
 70
    0
  0
ENDTAB
  0
TABLE
  2
UCS
  5
7
330
0
100
AcDbSymbolTable
 70
    0
  0
ENDTAB
  0
TABLE
  2
APPID
  5
9
330
0
100
AcDbSymbolTable
 70
    1
  0
APPID
  5
12
330
9
100
AcDbSymbolTableRecord
100
AcDbRegAppTableRecord
  2
ACAD
 70
    0
  0
APPID
  5
51
330
9
100
AcDbSymbolTableRecord
100
AcDbRegAppTableRecord
  2
LibreCad
 70
    0
  0
ENDTAB
  0
TABLE
  2
DIMSTYLE
  5
A
330
0
100
AcDbSymbolTable
 70
    1
100
AcDbDimStyleTable
 71
    1
  0
DIMSTYLE
105
52
330
A
100
AcDbSymbolTableRecord
100
AcDbDimStyleTableRecord
  2
Standard
 70
    0
 40
2.5
 41
2.5
 42
0.625
 43
0.38
 44
1.25
 45
0
 46
0
 47
0
 48
0
 49
1
140
2.5
141
0.09
142
0
143
25.4
144
1
145
0
146
1
147
0.625
148
0
 71
    0
 72
    0
 73
    0
 74
    1
 75
    0
 76
    0
 77
    0
 78
    8
 79
    0
170
    0
171
    2
172
    0
173
    0
174
    0
175
    0
176
    0
177
    0
178
    0
179
    0
271
    2
272
    4
273
    2
274
    2
275
    0
276
    0
277
    2
278
   44
279
    0
280
    0
281
    0
282
    0
283
    1
284
    0
285
    0
286
    0
288
    0
289
    3
340
STANDARD
341

371
   -2
372
   -2
  0
ENDTAB
  0
TABLE
  2
BLOCK_RECORD
  5
1
330
0
100
AcDbSymbolTable
 70
    2
  0
BLOCK_RECORD
  5
1F
330
1
100
AcDbSymbolTableRecord
100
AcDbBlockTableRecord
  2
*Model_Space
 70
    0
280
    1
281
    0
  0
BLOCK_RECORD
  5
1E
330
1
100
AcDbSymbolTableRecord
100
AcDbBlockTableRecord
  2
*Paper_Space
 70
    0
280
    1
281
    0
  0
ENDTAB
  0
ENDSEC
  0
SECTION
  2
BLOCKS
  0
BLOCK
  5
20
330
1F
100
AcDbEntity
  8
0
100
AcDbBlockBegin
  2
*Model_Space
 70
    0
 10
0
 20
0
 30
0
  3
*Model_Space
  1

  0
ENDBLK
  5
21
330
1F
100
AcDbEntity
  8
0
100
AcDbBlockEnd
  0
BLOCK
  5
1C
330
1B
100
AcDbEntity
  8
0
100
AcDbBlockBegin
  2
*Paper_Space
 70
    0
 10
0
 20
0
 30
0
  3
*Paper_Space
  1

  0
ENDBLK
  5
1D
330
1F
100
AcDbEntity
  8
0
100
AcDbBlockEnd
  0
ENDSEC
  0
SECTION
  2
ENTITIES
  0
IMAGE
  5
55
100
AcDbEntity
  8
24-tooth
  6
ByLayer
 62
  256
370
   -1
100
AcDbRasterImage
 10
200
 20
0
 30
0
 11
1
 21
0
 31
0
 12
6.123233995736766e-17
 22
1
 32
0
 13
1
 23
1
340
53
 70
    1
280
    0
281
   50
282
   50
283
    0
360
54
  0
SPLINE
  5
56
100
AcDbEntity
  8
0
  6
ByLayer
 62
    7
370
   -1
100
AcDbSpline
210
0
220
0
230
0
 70
    8
 71
    3
 72
    8
 73
    4
 74
    0
 42
1e-07
 43
1e-07
 40
0
 40
0
 40
0
 40
0
 40
1
 40
1
 40
1
 40
1
 10
15.7709999999606
 20
3.701999999990743
 30
0
 10
15.40325866662813
 20
3.08270533332562
 30
0
 10
14.97264933329591
 20
2.502973333327072
 30
0
 10
14.48599999996381
 20
1.97199999999505
 30
0
  0
SPLINE
  5
57
100
AcDbEntity
  8
0
  6
ByLayer
 62
    7
370
   -1
100
AcDbSpline
210
0
220
0
230
0
 70
    8
 71
    3
 72
    8
 73
    4
 74
    0
 42
1e-07
 43
1e-07
 40
0
 40
0
 40
0
 40
0
 40
1
 40
1
 40
1
 40
1
 10
14.48599999996381
 20
1.97199999999505
 30
0
 10
14.10776133329808
 20
1.558259999996123
 30
0
 10
13.68787466663241
 20
1.184618666663704
 30
0
 10
13.23299999996694
 20
0.8569999999978284
 30
0
  0
SPLINE
  5
58
100
AcDbEntity
  8
0
  6
ByLayer
 62
    7
370
   -1
100
AcDbSpline
210
0
220
0
230
0
 70
    8
 71
    3
 72
    8
 73
    4
 74
    0
 42
1e-07
 43
1e-07
 40
0
 40
0
 40
0
 40
0
 40
1
 40
1
 40
1
 40
1
 10
13.23299999996694
 20
0.8569999999978284
 30
0
 10
12.90870533330108
 20
0.6229893333317743
 30
0
 10
12.56121199996859
 20
0.4229386666656144
 30
0
 10
12.1959999999695
 20
0.2599999999993409
 30
0
  0
SPLINE
  5
59
100
AcDbEntity
  8
0
  6
ByLayer
 62
    7
370
   -1
100
AcDbSpline
210
0
220
0
230
0
 70
    8
 71
    3
 72
    8
 73
    4
 74
    0
 42
1e-07
 43
1e-07
 40
0
 40
0
 40
0
 40
0
 40
1
 40
1
 40
1
 40
1
 10
12.1959999999695
 20
0.2599999999993409
 30
0
 10
11.97699999997007
 20
0.1612799999996302
 30
0
 10
11.74847733330394
 20
0.0852173333331385
 30
0
 10
11.51399999997119
 20
0.03299999999989506
 30
0
  0
SPLINE
  5
5A
100
AcDbEntity
  8
0
  6
ByLayer
 62
    7
370
   -1
100
AcDbSpline
210
0
220
0
230
0
 70
    8
 71
    3
 72
    8
 73
    4
 74
    0
 42
1e-07
 43
1e-07
 40
0
 40
0
 40
0
 40
0
 40
1
 40
1
 40
1
 40
1
 10
11.51399999997119
 20
0.03299999999989506
 30
0
 10
11.43584666663808
 20
0.01472666666666208
 30
0
 10
11.35617733330494
 20
0.003680000000022014
 30
0
 10
11.27598533330517
 20
-9.999999997464794e-05
 30
0
  0
SPLINE
  5
5B
100
AcDbEntity
  8
0
  6
ByLayer
 62
    7
370
   -1
100
AcDbSpline
210
0
220
0
230
0
 70
    8
 71
    3
 72
    8
 73
    4
 74
    0
 42
1e-07
 43
1e-07
 40
0
 40
0
 40
0
 40
0
 40
1
 40
1
 40
1
 40
1
 10
11.27598533330517
 20
-9.999999997464794e-05
 30
0
 10
10.38520533330737
 20
0.129954666666338
 30
0
 10
9.557654666642803
 20
-0.4867346666654419
 30
0
 10
9.427599999976415
 20
-1.37751466666324
 30
0
  0
SPLINE
  5
5C
100
AcDbEntity
  8
0
  6
ByLayer
 62
    7
370
   -1
100
AcDbSpline
210
0
220
0
230
0
 70
    8
 71
    3
 72
    8
 73
    4
 74
    0
 42
1e-07
 43
1e-07
 40
0
 40
0
 40
0
 40
0
 40
1
 40
1
 40
1
 40
1
 10
9.427599999976415
 20
-1.37751466666324
 30
0
 10
9.297545333310103
 20
-2.268294666660963
 30
0
 10
9.914234666641882
 20
-3.095845333325609
 30
0
 10
10.80501466663968
 20
-3.225899999991921
 30
0
  0
SPLINE
  5
5D
100
AcDbEntity
  8
0
  6
ByLayer
 62
    7
370
   -1
100
AcDbSpline
210
0
220
0
230
0
 70
    8
 71
    3
 72
    8
 73
    4
 74
    0
 42
1e-07
 43
1e-07
 40
0
 40
0
 40
0
 40
0
 40
1
 40
1
 40
1
 40
1
 10
10.80501466663968
 20
-3.225899999991921
 30
0
 10
10.8805519999728
 20
-3.252203999991838
 30
0
 10
10.95351866663931
 20
-3.285375999991753
 30
0
 10
11.02299999997243
 20
-3.324999999991657
 30
0
  0
SPLINE
  5
5E
100
AcDbEntity
  8
0
  6
ByLayer
 62
    7
370
   -1
100
AcDbSpline
210
0
220
0
230
0
 70
    8
 71
    3
 72
    8
 73
    4
 74
    0
 42
1e-07
 43
1e-07
 40
0
 40
0
 40
0
 40
0
 40
1
 40
1
 40
1
 40
1
 10
11.02299999997243
 20
-3.324999999991657
 30
0
 10
11.23286666663856
 20
-3.441893333324702
 30
0
 10
11.43022666663811
 20
-3.579943999991043
 30
0
 10
11.61199999997097
 20
-3.736999999990661
 30
0
  0
SPLINE
  5
5F
100
AcDbEntity
  8
0
  6
ByLayer
 62
    7
370
   -1
100
AcDbSpline
210
0
220
0
230
0
 70
    8
 71
    3
 72
    8
 73
    4
 74
    0
 42
1e-07
 43
1e-07
 40
0
 40
0
 40
0
 40
0
 40
1
 40
1
 40
1
 40
1
 10
11.61199999997097
 20
-3.736999999990661
 30
0
 10
11.91544666663685
 20
-3.998005333323372
 30
0
 10
12.1912319999695
 20
-4.289539999989264
 30
0
 10
12.43499999996893
 20
-4.606999999988453
 30
0
  0
SPLINE
  5
60
100
AcDbEntity
  8
0
  6
ByLayer
 62
    7
370
   -1
100
AcDbSpline
210
0
220
0
230
0
 70
    8
 71
    3
 72
    8
 73
    4
 74
    0
 42
1e-07
 43
1e-07
 40
0
 40
0
 40
0
 40
0
 40
1
 40
1
 40
1
 40
1
 10
12.43499999996893
 20
-4.606999999988453
 30
0
 10
12.77720933330136
 20
-5.050770666654019
 30
0
 10
13.07277066663397
 20
-5.528627999986204
 30
0
 10
13.31699999996671
 20
-6.032999999984895
 30
0
  0
SPLINE
  5
61
100
AcDbEntity
  8
0
  6
ByLayer
 62
    7
370
   -1
100
AcDbSpline
210
0
220
0
230
0
 70
    8
 71
    3
 72
    8
 73
    4
 74
    0
 42
1e-07
 43
1e-07
 40
0
 40
0
 40
0
 40
0
 40
1
 40
1
 40
1
 40
1
 10
13.31699999996671
 20
-6.032999999984895
 30
0
 10
13.63132399996595
 20
-6.681238666649931
 30
0
 10
13.87796266663199
 20
-7.360162666648286
 30
0
 10
14.0529999999649
 20
-8.058999999979822
 30
0
  0
SPLINE
  5
62
100
AcDbEntity
  8
0
  6
ByLayer
 62
    7
370
   -1
100
AcDbSpline
210
0
220
0
230
0
 70
    8
 71
    3
 72
    8
 73
    4
 74
    0
 42
1e-07
 43
1e-07
 40
0
 40
0
 40
0
 40
0
 40
1
 40
1
 40
1
 40
1
 10
13.76999999996556
 20
-8.533999999978695
 30
0
 10
13.07172266663397
 20
-8.712062666644869
 30
0
 10
12.35693999996908
 20
-8.817621333311319
 30
0
 10
11.63699999997093
 20
-8.848999999977886
 30
0
  0
SPLINE
  5
63
100
AcDbEntity
  8
0
  6
ByLayer
 62
    7
370
   -1
100
AcDbSpline
210
0
220
0
230
0
 70
    8
 71
    3
 72
    8
 73
    4
 74
    0
 42
1e-07
 43
1e-07
 40
0
 40
0
 40
0
 40
0
 40
1
 40
1
 40
1
 40
1
 10
11.63699999997093
 20
-8.848999999977886
 30
0
 10
11.07744799997231
 20
-8.873865333311134
 30
0
 10
10.51682266664034
 20
-8.841025333311212
 30
0
 10
9.963999999975107
 20
-8.750999999978099
 30
0
  0
SPLINE
  5
64
100
AcDbEntity
  8
0
  6
ByLayer
 62
    7
370
   -1
100
AcDbSpline
210
0
220
0
230
0
 70
    8
 71
    3
 72
    8
 73
    4
 74
    0
 42
1e-07
 43
1e-07
 40
0
 40
0
 40
0
 40
0
 40
1
 40
1
 40
1
 40
1
 10
9.963999999975107
 20
-8.750999999978099
 30
0
 10
9.568683999976077
 20
-8.687306666644981
 30
0
 10
9.180974666643742
 20
-8.583090666645214
 30
0
 10
8.806999999977998
 20
-8.439999999978879
 30
0
  0
SPLINE
  5
65
100
AcDbEntity
  8
0
  6
ByLayer
 62
    7
370
   -1
100
AcDbSpline
210
0
220
0
230
0
 70
    8
 71
    3
 72
    8
 73
    4
 74
    0
 42
1e-07
 43
1e-07
 40
0
 40
0
 40
0
 40
0
 40
1
 40
1
 40
1
 40
1
 10
8.806999999977998
 20
-8.439999999978879
 30
0
 10
8.58258933331186
 20
-8.35481733331247
 30
0
 10
8.367471999979063
 20
-8.246923999979417
 30
0
 10
8.164999999979552
 20
-8.117999999979718
 30
0
  0
SPLINE
  5
66
100
AcDbEntity
  8
0
  6
ByLayer
 62
    7
370
   -1
100
AcDbSpline
210
0
220
0
230
0
 70
    8
 71
    3
 72
    8
 73
    4
 74
    0
 42
1e-07
 43
1e-07
 40
0
 40
0
 40
0
 40
0
 40
1
 40
1
 40
1
 40
1
 10
8.164999999979552
 20
-8.117999999979718
 30
0
 10
8.097071999979782
 20
-8.075929333313116
 30
0
 10
8.03313866664659
 20
-8.027729333313285
 30
0
 10
7.973999999980073
 20
-7.973999999980073
 30
0
  0
SPLINE
  5
67
100
AcDbEntity
  8
0
  6
ByLayer
 62
    7
370
   -1
100
AcDbSpline
210
0
220
0
230
0
 70
    8
 71
    3
 72
    8
 73
    4
 74
    0
 42
1e-07
 43
1e-07
 40
0
 40
0
 40
0
 40
0
 40
1
 40
1
 40
1
 40
1
 10
7.973999999980073
 20
-7.973999999980073
 30
0
 10
7.430059999981412
 20
-7.271817333315171
 30
0
 10
6.424061333317248
 20
-7.134395999982163
 30
0
 10
5.711725333319055
 20
-7.664969333314136
 30
0
  0
SPLINE
  5
68
100
AcDbEntity
  8
0
  6
ByLayer
 62
    7
370
   -1
100
AcDbSpline
210
0
220
0
230
0
 70
    8
 71
    3
 72
    8
 73
    4
 74
    0
 42
1e-07
 43
1e-07
 40
0
 40
0
 40
0
 40
0
 40
1
 40
1
 40
1
 40
1
 10
5.711725333319055
 20
-7.664969333314136
 30
0
 10
4.999389333320861
 20
-8.195542666646183
 30
0
 10
4.842982666654525
 20
-9.198765333310316
 30
0
 10
5.359999999986576
 20
-9.920999999975169
 30
0
  0
SPLINE
  5
69
100
AcDbEntity
  8
0
  6
ByLayer
 62
    7
370
   -1
100
AcDbSpline
210
0
220
0
230
0
 70
    8
 71
    3
 72
    8
 73
    4
 74
    0
 42
1e-07
 43
1e-07
 40
0
 40
0
 40
0
 40
0
 40
1
 40
1
 40
1
 40
1
 10
5.359999999986576
 20
-9.920999999975169
 30
0
 10
5.39483599998653
 20
-9.993267999975036
 30
0
 10
5.422954666653074
 20
-10.06858399997485
 30
0
 10
5.443999999986425
 20
-10.14599999997467
 30
0
  0
SPLINE
  5
6A
100
AcDbEntity
  8
0
  6
ByLayer
 62
    7
370
   -1
100
AcDbSpline
210
0
220
0
230
0
 70
    8
 71
    3
 72
    8
 73
    4
 74
    0
 42
1e-07
 43
1e-07
 40
0
 40
0
 40
0
 40
0
 40
1
 40
1
 40
1
 40
1
 10
5.443999999986425
 20
-10.14599999997467
 30
0
 10
5.509295999986252
 20
-10.37683066664072
 30
0
 10
5.550845333319474
 20
-10.6137266666401
 30
0
 10
5.567999999986063
 20
-10.85299999997286
 30
0
  0
SPLINE
  5
6B
100
AcDbEntity
  8
0
  6
ByLayer
 62
    7
370
   -1
100
AcDbSpline
210
0
220
0
230
0
 70
    8
 71
    3
 72
    8
 73
    4
 74
    0
 42
1e-07
 43
1e-07
 40
0
 40
0
 40
0
 40
0
 40
1
 40
1
 40
1
 40
1
 10
5.567999999986063
 20
-10.85299999997286
 30
0
 10
5.598147999986042
 20
-11.25240799997185
 30
0
 10
5.587089333319356
 20
-11.65385733330418
 30
0
 10
5.534999999986169
 20
-12.05099999996988
 30
0
  0
SPLINE
  5
6C
100
AcDbEntity
  8
0
  6
ByLayer
 62
    7
370
   -1
100
AcDbSpline
210
0
220
0
230
0
 70
    8
 71
    3
 72
    8
 73
    4
 74
    0
 42
1e-07
 43
1e-07
 40
0
 40
0
 40
0
 40
0
 40
1
 40
1
 40
1
 40
1
 10
5.534999999986169
 20
-12.05099999996988
 30
0
 10
5.463333333319708
 20
-12.60640799996851
 30
0
 10
5.334654666653329
 20
-13.15295866663376
 30
0
 10
5.150999999987114
 20
-13.68199999996581
 30
0
  0
SPLINE
  5
6D
100
AcDbEntity
  8
0
  6
ByLayer
 62
    7
370
   -1
100
AcDbSpline
210
0
220
0
230
0
 70
    8
 71
    3
 72
    8
 73
    4
 74
    0
 42
1e-07
 43
1e-07
 40
0
 40
0
 40
0
 40
0
 40
1
 40
1
 40
1
 40
1
 10
5.150999999987114
 20
-13.68199999996581
 30
0
 10
4.915002666654412
 20
-14.36296133329743
 30
0
 10
4.609385333321821
 20
-15.01776133329581
 30
0
 10
4.238999999989435
 20
-15.63599999996088
 30
0
  0
LWPOLYLINE
  5
6E
100
AcDbEntity
  8
0
  6
ByLayer
 62
    7
370
   -1
100
AcDbPolyline
 90
    2
 70
    0
 43
0
 10
14.0529999999649
 20
-8.058999999979822
 10
13.76999999996556
 20
-8.533999999978695
  0
SPLINE
  5
6F
100
AcDbEntity
  8
0
  6
ByLayer
 62
    7
370
   -1
100
AcDbSpline
210
0
220
0
230
0
 70
    8
 71
    3
 72
    8
 73
    4
 74
    0
 42
1e-07
 43
1e-07
 40
0
 40
0
 40
0
 40
0
 40
1
 40
1
 40
1
 40
1
 10
3.701999999990743
 20
-15.7709999999606
 30
0
 10
3.08270533332562
 20
-15.40325866662813
 30
0
 10
2.502973333327072
 20
-14.97264933329591
 30
0
 10
1.97199999999505
 20
-14.48599999996381
 30
0
  0
SPLINE
  5
70
100
AcDbEntity
  8
0
  6
ByLayer
 62
    7
370
   -1
100
AcDbSpline
210
0
220
0
230
0
 70
    8
 71
    3
 72
    8
 73
    4
 74
    0
 42
1e-07
 43
1e-07
 40
0
 40
0
 40
0
 40
0
 40
1
 40
1
 40
1
 40
1
 10
1.97199999999505
 20
-14.48599999996381
 30
0
 10
1.558259999996123
 20
-14.10776133329808
 30
0
 10
1.184618666663704
 20
-13.68787466663241
 30
0
 10
0.8569999999978284
 20
-13.23299999996694
 30
0
  0
SPLINE
  5
71
100
AcDbEntity
  8
0
  6
ByLayer
 62
    7
370
   -1
100
AcDbSpline
210
0
220
0
230
0
 70
    8
 71
    3
 72
    8
 73
    4
 74
    0
 42
1e-07
 43
1e-07
 40
0
 40
0
 40
0
 40
0
 40
1
 40
1
 40
1
 40
1
 10
0.8569999999978284
 20
-13.23299999996694
 30
0
 10
0.6229893333317743
 20
-12.90870533330108
 30
0
 10
0.4229386666656144
 20
-12.56121199996859
 30
0
 10
0.2599999999993409
 20
-12.1959999999695
 30
0
  0
SPLINE
  5
72
100
AcDbEntity
  8
0
  6
ByLayer
 62
    7
370
   -1
100
AcDbSpline
210
0
220
0
230
0
 70
    8
 71
    3
 72
    8
 73
    4
 74
    0
 42
1e-07
 43
1e-07
 40
0
 40
0
 40
0
 40
0
 40
1
 40
1
 40
1
 40
1
 10
0.2599999999993409
 20
-12.1959999999695
 30
0
 10
0.1612799999996302
 20
-11.97699999997007
 30
0
 10
0.0852173333331385
 20
-11.74847733330394
 30
0
 10
0.03299999999989506
 20
-11.51399999997119
 30
0
  0
SPLINE
  5
73
100
AcDbEntity
  8
0
  6
ByLayer
 62
    7
370
   -1
100
AcDbSpline
210
0
220
0
230
0
 70
    8
 71
    3
 72
    8
 73
    4
 74
    0
 42
1e-07
 43
1e-07
 40
0
 40
0
 40
0
 40
0
 40
1
 40
1
 40
1
 40
1
 10
0.03299999999989506
 20
-11.51399999997119
 30
0
 10
0.01472666666666208
 20
-11.43584666663808
 30
0
 10
0.003680000000022014
 20
-11.35617733330494
 30
0
 10
-9.999999997464794e-05
 20
-11.27598533330517
 30
0
  0
SPLINE
  5
74
100
AcDbEntity
  8
0
  6
ByLayer
 62
    7
370
   -1
100
AcDbSpline
210
0
220
0
230
0
 70
    8
 71
    3
 72
    8
 73
    4
 74
    0
 42
1e-07
 43
1e-07
 40
0
 40
0
 40
0
 40
0
 40
1
 40
1
 40
1
 40
1
 10
-9.999999997464794e-05
 20
-11.27598533330517
 30
0
 10
0.08403066666643919
 20
-10.69975199997324
 30
0
 10
-0.1456466666663191
 20
-10.12240666664139
 30
0
 10
-0.6026133333318074
 20
-9.76143066664228
 30
0
  0
SPLINE
  5
75
100
AcDbEntity
  8
0
  6
ByLayer
 62
    7
370
   -1
100
AcDbSpline
210
0
220
0
230
0
 70
    8
 71
    3
 72
    8
 73
    4
 74
    0
 42
1e-07
 43
1e-07
 40
0
 40
0
 40
0
 40
0
 40
1
 40
1
 40
1
 40
1
 10
-0.6026133333318074
 20
-9.76143066664228
 30
0
 10
-1.059581333330702
 20
-9.400453333309839
 30
0
 10
-1.674414666662473
 20
-9.31068799997675
 30
0
 10
-2.215513333327781
 20
-9.525945333309496
 30
0
  0
SPLINE
  5
76
100
AcDbEntity
  8
0
  6
ByLayer
 62
    7
370
   -1
100
AcDbSpline
210
0
220
0
230
0
 70
    8
 71
    3
 72
    8
 73
    4
 74
    0
 42
1e-07
 43
1e-07
 40
0
 40
0
 40
0
 40
0
 40
1
 40
1
 40
1
 40
1
 10
-2.215513333327781
 20
-9.525945333309496
 30
0
 10
-2.756611999993089
 20
-9.741202666642318
 30
0
 10
-3.141769333325508
 20
-10.22878133330775
 30
0
 10
-3.225899999991921
 20
-10.80501466663968
 30
0
  0
SPLINE
  5
77
100
AcDbEntity
  8
0
  6
ByLayer
 62
    7
370
   -1
100
AcDbSpline
210
0
220
0
230
0
 70
    8
 71
    3
 72
    8
 73
    4
 74
    0
 42
1e-07
 43
1e-07
 40
0
 40
0
 40
0
 40
0
 40
1
 40
1
 40
1
 40
1
 10
-3.225899999991921
 20
-10.80501466663968
 30
0
 10
-3.252203999991838
 20
-10.8805519999728
 30
0
 10
-3.285375999991753
 20
-10.95351866663931
 30
0
 10
-3.324999999991657
 20
-11.02299999997243
 30
0
  0
SPLINE
  5
78
100
AcDbEntity
  8
0
  6
ByLayer
 62
    7
370
   -1
100
AcDbSpline
210
0
220
0
230
0
 70
    8
 71
    3
 72
    8
 73
    4
 74
    0
 42
1e-07
 43
1e-07
 40
0
 40
0
 40
0
 40
0
 40
1
 40
1
 40
1
 40
1
 10
-3.324999999991657
 20
-11.02299999997243
 30
0
 10
-3.441893333324702
 20
-11.23286666663856
 30
0
 10
-3.579943999991043
 20
-11.43022666663811
 30
0
 10
-3.736999999990661
 20
-11.61199999997097
 30
0
  0
SPLINE
  5
79
100
AcDbEntity
  8
0
  6
ByLayer
 62
    7
370
   -1
100
AcDbSpline
210
0
220
0
230
0
 70
    8
 71
    3
 72
    8
 73
    4
 74
    0
 42
1e-07
 43
1e-07
 40
0
 40
0
 40
0
 40
0
 40
1
 40
1
 40
1
 40
1
 10
-3.736999999990661
 20
-11.61199999997097
 30
0
 10
-3.998005333323372
 20
-11.91544666663685
 30
0
 10
-4.289539999989264
 20
-12.1912319999695
 30
0
 10
-4.606999999988453
 20
-12.43499999996893
 30
0
  0
SPLINE
  5
7A
100
AcDbEntity
  8
0
  6
ByLayer
 62
    7
370
   -1
100
AcDbSpline
210
0
220
0
230
0
 70
    8
 71
    3
 72
    8
 73
    4
 74
    0
 42
1e-07
 43
1e-07
 40
0
 40
0
 40
0
 40
0
 40
1
 40
1
 40
1
 40
1
 10
-4.606999999988453
 20
-12.43499999996893
 30
0
 10
-5.050770666654019
 20
-12.77720933330136
 30
0
 10
-5.528627999986204
 20
-13.07277066663397
 30
0
 10
-6.032999999984895
 20
-13.31699999996671
 30
0
  0
SPLINE
  5
7B
100
AcDbEntity
  8
0
  6
ByLayer
 62
    7
370
   -1
100
AcDbSpline
210
0
220
0
230
0
 70
    8
 71
    3
 72
    8
 73
    4
 74
    0
 42
1e-07
 43
1e-07
 40
0
 40
0
 40
0
 40
0
 40
1
 40
1
 40
1
 40
1
 10
-6.032999999984895
 20
-13.31699999996671
 30
0
 10
-6.681238666649931
 20
-13.63132399996595
 30
0
 10
-7.360162666648286
 20
-13.87796266663199
 30
0
 10
-8.058999999979822
 20
-14.0529999999649
 30
0
  0
LWPOLYLINE
  5
7C
100
AcDbEntity
  8
0
  6
ByLayer
 62
    7
370
   -1
100
AcDbPolyline
 90
    2
 70
    0
 43
0
 10
4.238999999989435
 20
-15.63599999996088
 10
3.701999999990743
 20
-15.7709999999606
  0
SPLINE
  5
7D
100
AcDbEntity
  8
0
  6
ByLayer
 62
    7
370
   -1
100
AcDbSpline
210
0
220
0
230
0
 70
    8
 71
    3
 72
    8
 73
    4
 74
    0
 42
1e-07
 43
1e-07
 40
0
 40
0
 40
0
 40
0
 40
1
 40
1
 40
1
 40
1
 10
-8.533999999978695
 20
-13.76999999996556
 30
0
 10
-8.712062666644869
 20
-13.07172266663397
 30
0
 10
-8.817621333311319
 20
-12.35693999996908
 30
0
 10
-8.848999999977886
 20
-11.63699999997093
 30
0
  0
SPLINE
  5
7E
100
AcDbEntity
  8
0
  6
ByLayer
 62
    7
370
   -1
100
AcDbSpline
210
0
220
0
230
0
 70
    8
 71
    3
 72
    8
 73
    4
 74
    0
 42
1e-07
 43
1e-07
 40
0
 40
0
 40
0
 40
0
 40
1
 40
1
 40
1
 40
1
 10
-8.848999999977886
 20
-11.63699999997093
 30
0
 10
-8.873865333311134
 20
-11.07744799997231
 30
0
 10
-8.841025333311212
 20
-10.51682266664034
 30
0
 10
-8.750999999978099
 20
-9.963999999975107
 30
0
  0
SPLINE
  5
7F
100
AcDbEntity
  8
0
  6
ByLayer
 62
    7
370
   -1
100
AcDbSpline
210
0
220
0
230
0
 70
    8
 71
    3
 72
    8
 73
    4
 74
    0
 42
1e-07
 43
1e-07
 40
0
 40
0
 40
0
 40
0
 40
1
 40
1
 40
1
 40
1
 10
-8.750999999978099
 20
-9.963999999975107
 30
0
 10
-8.687306666644981
 20
-9.568683999976077
 30
0
 10
-8.583090666645214
 20
-9.180974666643742
 30
0
 10
-8.439999999978879
 20
-8.806999999977998
 30
0
  0
SPLINE
  5
80
100
AcDbEntity
  8
0
  6
ByLayer
 62
    7
370
   -1
100
AcDbSpline
210
0
220
0
230
0
 70
    8
 71
    3
 72
    8
 73
    4
 74
    0
 42
1e-07
 43
1e-07
 40
0
 40
0
 40
0
 40
0
 40
1
 40
1
 40
1
 40
1
 10
-8.439999999978879
 20
-8.806999999977998
 30
0
 10
-8.35481733331247
 20
-8.58258933331186
 30
0
 10
-8.246923999979417
 20
-8.367471999979063
 30
0
 10
-8.117999999979718
 20
-8.164999999979552
 30
0
  0
SPLINE
  5
81
100
AcDbEntity
  8
0
  6
ByLayer
 62
    7
370
   -1
100
AcDbSpline
210
0
220
0
230
0
 70
    8
 71
    3
 72
    8
 73
    4
 74
    0
 42
1e-07
 43
1e-07
 40
0
 40
0
 40
0
 40
0
 40
1
 40
1
 40
1
 40
1
 10
-8.117999999979718
 20
-8.164999999979552
 30
0
 10
-8.075929333313116
 20
-8.097071999979782
 30
0
 10
-8.027729333313285
 20
-8.03313866664659
 30
0
 10
-7.973999999980073
 20
-7.973999999980073
 30
0
  0
SPLINE
  5
82
100
AcDbEntity
  8
0
  6
ByLayer
 62
    7
370
   -1
100
AcDbSpline
210
0
220
0
230
0
 70
    8
 71
    3
 72
    8
 73
    4
 74
    0
 42
1e-07
 43
1e-07
 40
0
 40
0
 40
0
 40
0
 40
1
 40
1
 40
1
 40
1
 10
-7.973999999980073
 20
-7.973999999980073
 30
0
 10
-7.271817333315171
 20
-7.430059999981412
 30
0
 10
-7.134395999982163
 20
-6.424061333317248
 30
0
 10
-7.664969333314136
 20
-5.711725333319055
 30
0
  0
SPLINE
  5
83
100
AcDbEntity
  8
0
  6
ByLayer
 62
    7
370
   -1
100
AcDbSpline
210
0
220
0
230
0
 70
    8
 71
    3
 72
    8
 73
    4
 74
    0
 42
1e-07
 43
1e-07
 40
0
 40
0
 40
0
 40
0
 40
1
 40
1
 40
1
 40
1
 10
-7.664969333314136
 20
-5.711725333319055
 30
0
 10
-8.195542666646183
 20
-4.999389333320861
 30
0
 10
-9.198765333310316
 20
-4.842982666654525
 30
0
 10
-9.920999999975169
 20
-5.359999999986576
 30
0
  0
SPLINE
  5
84
100
AcDbEntity
  8
0
  6
ByLayer
 62
    7
370
   -1
100
AcDbSpline
210
0
220
0
230
0
 70
    8
 71
    3
 72
    8
 73
    4
 74
    0
 42
1e-07
 43
1e-07
 40
0
 40
0
 40
0
 40
0
 40
1
 40
1
 40
1
 40
1
 10
-9.920999999975169
 20
-5.359999999986576
 30
0
 10
-9.993267999975036
 20
-5.39483599998653
 30
0
 10
-10.06858399997485
 20
-5.422954666653074
 30
0
 10
-10.14599999997467
 20
-5.443999999986425
 30
0
  0
SPLINE
  5
85
100
AcDbEntity
  8
0
  6
ByLayer
 62
    7
370
   -1
100
AcDbSpline
210
0
220
0
230
0
 70
    8
 71
    3
 72
    8
 73
    4
 74
    0
 42
1e-07
 43
1e-07
 40
0
 40
0
 40
0
 40
0
 40
1
 40
1
 40
1
 40
1
 10
-10.14599999997467
 20
-5.443999999986425
 30
0
 10
-10.37683066664072
 20
-5.509295999986252
 30
0
 10
-10.6137266666401
 20
-5.550845333319474
 30
0
 10
-10.85299999997286
 20
-5.567999999986063
 30
0
  0
SPLINE
  5
86
100
AcDbEntity
  8
0
  6
ByLayer
 62
    7
370
   -1
100
AcDbSpline
210
0
220
0
230
0
 70
    8
 71
    3
 72
    8
 73
    4
 74
    0
 42
1e-07
 43
1e-07
 40
0
 40
0
 40
0
 40
0
 40
1
 40
1
 40
1
 40
1
 10
-10.85299999997286
 20
-5.567999999986063
 30
0
 10
-11.25240799997185
 20
-5.598147999986042
 30
0
 10
-11.65385733330418
 20
-5.587089333319356
 30
0
 10
-12.05099999996988
 20
-5.534999999986169
 30
0
  0
SPLINE
  5
87
100
AcDbEntity
  8
0
  6
ByLayer
 62
    7
370
   -1
100
AcDbSpline
210
0
220
0
230
0
 70
    8
 71
    3
 72
    8
 73
    4
 74
    0
 42
1e-07
 43
1e-07
 40
0
 40
0
 40
0
 40
0
 40
1
 40
1
 40
1
 40
1
 10
-12.05099999996988
 20
-5.534999999986169
 30
0
 10
-12.60640799996851
 20
-5.463333333319708
 30
0
 10
-13.15295866663376
 20
-5.334654666653329
 30
0
 10
-13.68199999996581
 20
-5.150999999987114
 30
0
  0
SPLINE
  5
88
100
AcDbEntity
  8
0
  6
ByLayer
 62
    7
370
   -1
100
AcDbSpline
210
0
220
0
230
0
 70
    8
 71
    3
 72
    8
 73
    4
 74
    0
 42
1e-07
 43
1e-07
 40
0
 40
0
 40
0
 40
0
 40
1
 40
1
 40
1
 40
1
 10
-13.68199999996581
 20
-5.150999999987114
 30
0
 10
-14.36296133329743
 20
-4.915002666654412
 30
0
 10
-15.01776133329581
 20
-4.609385333321821
 30
0
 10
-15.63599999996088
 20
-4.238999999989435
 30
0
  0
LWPOLYLINE
  5
89
100
AcDbEntity
  8
0
  6
ByLayer
 62
    7
370
   -1
100
AcDbPolyline
 90
    2
 70
    0
 43
0
 10
-8.058999999979822
 20
-14.0529999999649
 10
-8.533999999978695
 20
-13.76999999996556
  0
SPLINE
  5
8A
100
AcDbEntity
  8
0
  6
ByLayer
 62
    7
370
   -1
100
AcDbSpline
210
0
220
0
230
0
 70
    8
 71
    3
 72
    8
 73
    4
 74
    0
 42
1e-07
 43
1e-07
 40
0
 40
0
 40
0
 40
0
 40
1
 40
1
 40
1
 40
1
 10
-15.7709999999606
 20
-3.701999999990743
 30
0
 10
-15.40325866662813
 20
-3.08270533332562
 30
0
 10
-14.97264933329591
 20
-2.502973333327072
 30
0
 10
-14.48599999996381
 20
-1.97199999999505
 30
0
  0
SPLINE
  5
8B
100
AcDbEntity
  8
0
  6
ByLayer
 62
    7
370
   -1
100
AcDbSpline
210
0
220
0
230
0
 70
    8
 71
    3
 72
    8
 73
    4
 74
    0
 42
1e-07
 43
1e-07
 40
0
 40
0
 40
0
 40
0
 40
1
 40
1
 40
1
 40
1
 10
-14.48599999996381
 20
-1.97199999999505
 30
0
 10
-14.10776133329808
 20
-1.558259999996123
 30
0
 10
-13.68787466663241
 20
-1.184618666663704
 30
0
 10
-13.23299999996694
 20
-0.8569999999978284
 30
0
  0
SPLINE
  5
8C
100
AcDbEntity
  8
0
  6
ByLayer
 62
    7
370
   -1
100
AcDbSpline
210
0
220
0
230
0
 70
    8
 71
    3
 72
    8
 73
    4
 74
    0
 42
1e-07
 43
1e-07
 40
0
 40
0
 40
0
 40
0
 40
1
 40
1
 40
1
 40
1
 10
-13.23299999996694
 20
-0.8569999999978284
 30
0
 10
-12.90870533330108
 20
-0.6229893333317743
 30
0
 10
-12.56121199996859
 20
-0.4229386666656144
 30
0
 10
-12.1959999999695
 20
-0.2599999999993409
 30
0
  0
SPLINE
  5
8D
100
AcDbEntity
  8
0
  6
ByLayer
 62
    7
370
   -1
100
AcDbSpline
210
0
220
0
230
0
 70
    8
 71
    3
 72
    8
 73
    4
 74
    0
 42
1e-07
 43
1e-07
 40
0
 40
0
 40
0
 40
0
 40
1
 40
1
 40
1
 40
1
 10
-12.1959999999695
 20
-0.2599999999993409
 30
0
 10
-11.97699999997007
 20
-0.1612799999996302
 30
0
 10
-11.74847733330394
 20
-0.0852173333331385
 30
0
 10
-11.51399999997119
 20
-0.03299999999989506
 30
0
  0
SPLINE
  5
8E
100
AcDbEntity
  8
0
  6
ByLayer
 62
    7
370
   -1
100
AcDbSpline
210
0
220
0
230
0
 70
    8
 71
    3
 72
    8
 73
    4
 74
    0
 42
1e-07
 43
1e-07
 40
0
 40
0
 40
0
 40
0
 40
1
 40
1
 40
1
 40
1
 10
-11.51399999997119
 20
-0.03299999999989506
 30
0
 10
-11.43584666663808
 20
-0.01472666666666208
 30
0
 10
-11.35617733330494
 20
-0.003680000000022014
 30
0
 10
-11.27598533330517
 20
9.999999997464794e-05
 30
0
  0
SPLINE
  5
8F
100
AcDbEntity
  8
0
  6
ByLayer
 62
    7
370
   -1
100
AcDbSpline
210
0
220
0
230
0
 70
    8
 71
    3
 72
    8
 73
    4
 74
    0
 42
1e-07
 43
1e-07
 40
0
 40
0
 40
0
 40
0
 40
1
 40
1
 40
1
 40
1
 10
-11.27598533330517
 20
9.999999997464794e-05
 30
0
 10
-10.69975199997324
 20
-0.08403066666643919
 30
0
 10
-10.12240666664139
 20
0.1456466666663191
 30
0
 10
-9.76143066664228
 20
0.6026133333318074
 30
0
  0
SPLINE
  5
90
100
AcDbEntity
  8
0
  6
ByLayer
 62
    7
370
   -1
100
AcDbSpline
210
0
220
0
230
0
 70
    8
 71
    3
 72
    8
 73
    4
 74
    0
 42
1e-07
 43
1e-07
 40
0
 40
0
 40
0
 40
0
 40
1
 40
1
 40
1
 40
1
 10
-9.76143066664228
 20
0.6026133333318074
 30
0
 10
-9.400453333309839
 20
1.059581333330702
 30
0
 10
-9.31068799997675
 20
1.674414666662473
 30
0
 10
-9.525945333309496
 20
2.215513333327781
 30
0
  0
SPLINE
  5
91
100
AcDbEntity
  8
0
  6
ByLayer
 62
    7
370
   -1
100
AcDbSpline
210
0
220
0
230
0
 70
    8
 71
    3
 72
    8
 73
    4
 74
    0
 42
1e-07
 43
1e-07
 40
0
 40
0
 40
0
 40
0
 40
1
 40
1
 40
1
 40
1
 10
-9.525945333309496
 20
2.215513333327781
 30
0
 10
-9.741202666642318
 20
2.756611999993089
 30
0
 10
-10.22878133330775
 20
3.141769333325508
 30
0
 10
-10.80501466663968
 20
3.225899999991921
 30
0
  0
SPLINE
  5
92
100
AcDbEntity
  8
0
  6
ByLayer
 62
    7
370
   -1
100
AcDbSpline
210
0
220
0
230
0
 70
    8
 71
    3
 72
    8
 73
    4
 74
    0
 42
1e-07
 43
1e-07
 40
0
 40
0
 40
0
 40
0
 40
1
 40
1
 40
1
 40
1
 10
-10.80501466663968
 20
3.225899999991921
 30
0
 10
-10.8805519999728
 20
3.252203999991838
 30
0
 10
-10.95351866663931
 20
3.285375999991753
 30
0
 10
-11.02299999997243
 20
3.324999999991657
 30
0
  0
SPLINE
  5
93
100
AcDbEntity
  8
0
  6
ByLayer
 62
    7
370
   -1
100
AcDbSpline
210
0
220
0
230
0
 70
    8
 71
    3
 72
    8
 73
    4
 74
    0
 42
1e-07
 43
1e-07
 40
0
 40
0
 40
0
 40
0
 40
1
 40
1
 40
1
 40
1
 10
-11.02299999997243
 20
3.324999999991657
 30
0
 10
-11.23286666663856
 20
3.441893333324702
 30
0
 10
-11.43022666663811
 20
3.579943999991043
 30
0
 10
-11.61199999997097
 20
3.736999999990661
 30
0
  0
SPLINE
  5
94
100
AcDbEntity
  8
0
  6
ByLayer
 62
    7
370
   -1
100
AcDbSpline
210
0
220
0
230
0
 70
    8
 71
    3
 72
    8
 73
    4
 74
    0
 42
1e-07
 43
1e-07
 40
0
 40
0
 40
0
 40
0
 40
1
 40
1
 40
1
 40
1
 10
-11.61199999997097
 20
3.736999999990661
 30
0
 10
-11.91544666663685
 20
3.998005333323372
 30
0
 10
-12.1912319999695
 20
4.289539999989264
 30
0
 10
-12.43499999996893
 20
4.606999999988453
 30
0
  0
SPLINE
  5
95
100
AcDbEntity
  8
0
  6
ByLayer
 62
    7
370
   -1
100
AcDbSpline
210
0
220
0
230
0
 70
    8
 71
    3
 72
    8
 73
    4
 74
    0
 42
1e-07
 43
1e-07
 40
0
 40
0
 40
0
 40
0
 40
1
 40
1
 40
1
 40
1
 10
-12.43499999996893
 20
4.606999999988453
 30
0
 10
-12.77720933330136
 20
5.050770666654019
 30
0
 10
-13.07277066663397
 20
5.528627999986204
 30
0
 10
-13.31699999996671
 20
6.032999999984895
 30
0
  0
SPLINE
  5
96
100
AcDbEntity
  8
0
  6
ByLayer
 62
    7
370
   -1
100
AcDbSpline
210
0
220
0
230
0
 70
    8
 71
    3
 72
    8
 73
    4
 74
    0
 42
1e-07
 43
1e-07
 40
0
 40
0
 40
0
 40
0
 40
1
 40
1
 40
1
 40
1
 10
-13.31699999996671
 20
6.032999999984895
 30
0
 10
-13.63132399996595
 20
6.681238666649931
 30
0
 10
-13.87796266663199
 20
7.360162666648286
 30
0
 10
-14.0529999999649
 20
8.058999999979822
 30
0
  0
SPLINE
  5
97
100
AcDbEntity
  8
0
  6
ByLayer
 62
    7
370
   -1
100
AcDbSpline
210
0
220
0
230
0
 70
    8
 71
    3
 72
    8
 73
    4
 74
    0
 42
1e-07
 43
1e-07
 40
0
 40
0
 40
0
 40
0
 40
1
 40
1
 40
1
 40
1
 10
-14.0529999999649
 20
8.058999999979822
 30
0
 10
-14.0529999999649
 20
8.058999999979822
 30
0
 10
-13.76999999996556
 20
8.533999999978695
 30
0
 10
-13.76999999996556
 20
8.533999999978695
 30
0
  0
SPLINE
  5
98
100
AcDbEntity
  8
0
  6
ByLayer
 62
    7
370
   -1
100
AcDbSpline
210
0
220
0
230
0
 70
    8
 71
    3
 72
    8
 73
    4
 74
    0
 42
1e-07
 43
1e-07
 40
0
 40
0
 40
0
 40
0
 40
1
 40
1
 40
1
 40
1
 10
-13.76999999996556
 20
8.533999999978695
 30
0
 10
-13.07172266663397
 20
8.712062666644869
 30
0
 10
-12.35693999996908
 20
8.817621333311319
 30
0
 10
-11.63699999997093
 20
8.848999999977886
 30
0
  0
SPLINE
  5
99
100
AcDbEntity
  8
0
  6
ByLayer
 62
    7
370
   -1
100
AcDbSpline
210
0
220
0
230
0
 70
    8
 71
    3
 72
    8
 73
    4
 74
    0
 42
1e-07
 43
1e-07
 40
0
 40
0
 40
0
 40
0
 40
1
 40
1
 40
1
 40
1
 10
-11.63699999997093
 20
8.848999999977886
 30
0
 10
-11.07744799997231
 20
8.873865333311134
 30
0
 10
-10.51682266664034
 20
8.841025333311212
 30
0
 10
-9.963999999975107
 20
8.750999999978099
 30
0
  0
SPLINE
  5
9A
100
AcDbEntity
  8
0
  6
ByLayer
 62
    7
370
   -1
100
AcDbSpline
210
0
220
0
230
0
 70
    8
 71
    3
 72
    8
 73
    4
 74
    0
 42
1e-07
 43
1e-07
 40
0
 40
0
 40
0
 40
0
 40
1
 40
1
 40
1
 40
1
 10
-9.963999999975107
 20
8.750999999978099
 30
0
 10
-9.568683999976077
 20
8.687306666644981
 30
0
 10
-9.180974666643742
 20
8.583090666645214
 30
0
 10
-8.806999999977998
 20
8.439999999978879
 30
0
  0
SPLINE
  5
9B
100
AcDbEntity
  8
0
  6
ByLayer
 62
    7
370
   -1
100
AcDbSpline
210
0
220
0
230
0
 70
    8
 71
    3
 72
    8
 73
    4
 74
    0
 42
1e-07
 43
1e-07
 40
0
 40
0
 40
0
 40
0
 40
1
 40
1
 40
1
 40
1
 10
-8.806999999977998
 20
8.439999999978879
 30
0
 10
-8.58258933331186
 20
8.35481733331247
 30
0
 10
-8.367471999979063
 20
8.246923999979417
 30
0
 10
-8.164999999979552
 20
8.117999999979718
 30
0
  0
SPLINE
  5
9C
100
AcDbEntity
  8
0
  6
ByLayer
 62
    7
370
   -1
100
AcDbSpline
210
0
220
0
230
0
 70
    8
 71
    3
 72
    8
 73
    4
 74
    0
 42
1e-07
 43
1e-07
 40
0
 40
0
 40
0
 40
0
 40
1
 40
1
 40
1
 40
1
 10
-8.164999999979552
 20
8.117999999979718
 30
0
 10
-8.097071999979782
 20
8.075929333313116
 30
0
 10
-8.03313866664659
 20
8.027729333313285
 30
0
 10
-7.973999999980073
 20
7.973999999980073
 30
0
  0
SPLINE
  5
9D
100
AcDbEntity
  8
0
  6
ByLayer
 62
    7
370
   -1
100
AcDbSpline
210
0
220
0
230
0
 70
    8
 71
    3
 72
    8
 73
    4
 74
    0
 42
1e-07
 43
1e-07
 40
0
 40
0
 40
0
 40
0
 40
1
 40
1
 40
1
 40
1
 10
-7.973999999980073
 20
7.973999999980073
 30
0
 10
-7.430059999981412
 20
7.271817333315171
 30
0
 10
-6.424061333317248
 20
7.134395999982163
 30
0
 10
-5.711725333319055
 20
7.664969333314136
 30
0
  0
SPLINE
  5
9E
100
AcDbEntity
  8
0
  6
ByLayer
 62
    7
370
   -1
100
AcDbSpline
210
0
220
0
230
0
 70
    8
 71
    3
 72
    8
 73
    4
 74
    0
 42
1e-07
 43
1e-07
 40
0
 40
0
 40
0
 40
0
 40
1
 40
1
 40
1
 40
1
 10
-5.711725333319055
 20
7.664969333314136
 30
0
 10
-4.999389333320861
 20
8.195542666646183
 30
0
 10
-4.842982666654525
 20
9.198765333310316
 30
0
 10
-5.359999999986576
 20
9.920999999975169
 30
0
  0
SPLINE
  5
9F
100
AcDbEntity
  8
0
  6
ByLayer
 62
    7
370
   -1
100
AcDbSpline
210
0
220
0
230
0
 70
    8
 71
    3
 72
    8
 73
    4
 74
    0
 42
1e-07
 43
1e-07
 40
0
 40
0
 40
0
 40
0
 40
1
 40
1
 40
1
 40
1
 10
-5.359999999986576
 20
9.920999999975169
 30
0
 10
-5.39483599998653
 20
9.993267999975036
 30
0
 10
-5.422954666653074
 20
10.06858399997485
 30
0
 10
-5.443999999986425
 20
10.14599999997467
 30
0
  0
SPLINE
  5
A0
100
AcDbEntity
  8
0
  6
ByLayer
 62
    7
370
   -1
100
AcDbSpline
210
0
220
0
230
0
 70
    8
 71
    3
 72
    8
 73
    4
 74
    0
 42
1e-07
 43
1e-07
 40
0
 40
0
 40
0
 40
0
 40
1
 40
1
 40
1
 40
1
 10
-5.443999999986425
 20
10.14599999997467
 30
0
 10
-5.509295999986252
 20
10.37683066664072
 30
0
 10
-5.550845333319474
 20
10.6137266666401
 30
0
 10
-5.567999999986063
 20
10.85299999997286
 30
0
  0
SPLINE
  5
A1
100
AcDbEntity
  8
0
  6
ByLayer
 62
    7
370
   -1
100
AcDbSpline
210
0
220
0
230
0
 70
    8
 71
    3
 72
    8
 73
    4
 74
    0
 42
1e-07
 43
1e-07
 40
0
 40
0
 40
0
 40
0
 40
1
 40
1
 40
1
 40
1
 10
-5.567999999986063
 20
10.85299999997286
 30
0
 10
-5.598147999986042
 20
11.25240799997185
 30
0
 10
-5.587089333319356
 20
11.65385733330418
 30
0
 10
-5.534999999986169
 20
12.05099999996988
 30
0
  0
SPLINE
  5
A2
100
AcDbEntity
  8
0
  6
ByLayer
 62
    7
370
   -1
100
AcDbSpline
210
0
220
0
230
0
 70
    8
 71
    3
 72
    8
 73
    4
 74
    0
 42
1e-07
 43
1e-07
 40
0
 40
0
 40
0
 40
0
 40
1
 40
1
 40
1
 40
1
 10
-5.534999999986169
 20
12.05099999996988
 30
0
 10
-5.463333333319708
 20
12.60640799996851
 30
0
 10
-5.334654666653329
 20
13.15295866663376
 30
0
 10
-5.150999999987114
 20
13.68199999996581
 30
0
  0
SPLINE
  5
A3
100
AcDbEntity
  8
0
  6
ByLayer
 62
    7
370
   -1
100
AcDbSpline
210
0
220
0
230
0
 70
    8
 71
    3
 72
    8
 73
    4
 74
    0
 42
1e-07
 43
1e-07
 40
0
 40
0
 40
0
 40
0
 40
1
 40
1
 40
1
 40
1
 10
-5.150999999987114
 20
13.68199999996581
 30
0
 10
-4.915002666654412
 20
14.36296133329743
 30
0
 10
-4.609385333321821
 20
15.01776133329581
 30
0
 10
-4.238999999989435
 20
15.63599999996088
 30
0
  0
SPLINE
  5
A4
100
AcDbEntity
  8
0
  6
ByLayer
 62
    7
370
   -1
100
AcDbSpline
210
0
220
0
230
0
 70
    8
 71
    3
 72
    8
 73
    4
 74
    0
 42
1e-07
 43
1e-07
 40
0
 40
0
 40
0
 40
0
 40
1
 40
1
 40
1
 40
1
 10
-4.238999999989435
 20
15.63599999996088
 30
0
 10
-4.238999999989435
 20
15.63599999996088
 30
0
 10
-3.701999999990743
 20
15.7709999999606
 30
0
 10
-3.701999999990743
 20
15.7709999999606
 30
0
  0
SPLINE
  5
A5
100
AcDbEntity
  8
0
  6
ByLayer
 62
    7
370
   -1
100
AcDbSpline
210
0
220
0
230
0
 70
    8
 71
    3
 72
    8
 73
    4
 74
    0
 42
1e-07
 43
1e-07
 40
0
 40
0
 40
0
 40
0
 40
1
 40
1
 40
1
 40
1
 10
-3.701999999990743
 20
15.7709999999606
 30
0
 10
-3.08270533332562
 20
15.40325866662813
 30
0
 10
-2.502973333327072
 20
14.97264933329591
 30
0
 10
-1.97199999999505
 20
14.48599999996381
 30
0
  0
SPLINE
  5
A6
100
AcDbEntity
  8
0
  6
ByLayer
 62
    7
370
   -1
100
AcDbSpline
210
0
220
0
230
0
 70
    8
 71
    3
 72
    8
 73
    4
 74
    0
 42
1e-07
 43
1e-07
 40
0
 40
0
 40
0
 40
0
 40
1
 40
1
 40
1
 40
1
 10
-1.97199999999505
 20
14.48599999996381
 30
0
 10
-1.558259999996123
 20
14.10776133329808
 30
0
 10
-1.184618666663704
 20
13.68787466663241
 30
0
 10
-0.8569999999978284
 20
13.23299999996694
 30
0
  0
SPLINE
  5
A7
100
AcDbEntity
  8
0
  6
ByLayer
 62
    7
370
   -1
100
AcDbSpline
210
0
220
0
230
0
 70
    8
 71
    3
 72
    8
 73
    4
 74
    0
 42
1e-07
 43
1e-07
 40
0
 40
0
 40
0
 40
0
 40
1
 40
1
 40
1
 40
1
 10
-0.8569999999978284
 20
13.23299999996694
 30
0
 10
-0.6229893333317743
 20
12.90870533330108
 30
0
 10
-0.4229386666656144
 20
12.56121199996859
 30
0
 10
-0.2599999999993409
 20
12.1959999999695
 30
0
  0
SPLINE
  5
A8
100
AcDbEntity
  8
0
  6
ByLayer
 62
    7
370
   -1
100
AcDbSpline
210
0
220
0
230
0
 70
    8
 71
    3
 72
    8
 73
    4
 74
    0
 42
1e-07
 43
1e-07
 40
0
 40
0
 40
0
 40
0
 40
1
 40
1
 40
1
 40
1
 10
-0.2599999999993409
 20
12.1959999999695
 30
0
 10
-0.1612799999996302
 20
11.97699999997007
 30
0
 10
-0.0852173333331385
 20
11.74847733330394
 30
0
 10
-0.03299999999989506
 20
11.51399999997119
 30
0
  0
SPLINE
  5
A9
100
AcDbEntity
  8
0
  6
ByLayer
 62
    7
370
   -1
100
AcDbSpline
210
0
220
0
230
0
 70
    8
 71
    3
 72
    8
 73
    4
 74
    0
 42
1e-07
 43
1e-07
 40
0
 40
0
 40
0
 40
0
 40
1
 40
1
 40
1
 40
1
 10
-0.03299999999989506
 20
11.51399999997119
 30
0
 10
-0.01472666666666208
 20
11.43584666663808
 30
0
 10
-0.003680000000022014
 20
11.35617733330494
 30
0
 10
9.999999997464794e-05
 20
11.27598533330517
 30
0
  0
SPLINE
  5
AA
100
AcDbEntity
  8
0
  6
ByLayer
 62
    7
370
   -1
100
AcDbSpline
210
0
220
0
230
0
 70
    8
 71
    3
 72
    8
 73
    4
 74
    0
 42
1e-07
 43
1e-07
 40
0
 40
0
 40
0
 40
0
 40
1
 40
1
 40
1
 40
1
 10
9.999999997464794e-05
 20
11.27598533330517
 30
0
 10
-0.129954666666338
 20
10.38520533330737
 30
0
 10
0.4867346666654419
 20
9.557654666642803
 30
0
 10
1.37751466666324
 20
9.427599999976415
 30
0
  0
SPLINE
  5
AB
100
AcDbEntity
  8
0
  6
ByLayer
 62
    7
370
   -1
100
AcDbSpline
210
0
220
0
230
0
 70
    8
 71
    3
 72
    8
 73
    4
 74
    0
 42
1e-07
 43
1e-07
 40
0
 40
0
 40
0
 40
0
 40
1
 40
1
 40
1
 40
1
 10
1.37751466666324
 20
9.427599999976415
 30
0
 10
2.268294666660963
 20
9.297545333310103
 30
0
 10
3.095845333325609
 20
9.914234666641882
 30
0
 10
3.225899999991921
 20
10.80501466663968
 30
0
  0
SPLINE
  5
AC
100
AcDbEntity
  8
0
  6
ByLayer
 62
    7
370
   -1
100
AcDbSpline
210
0
220
0
230
0
 70
    8
 71
    3
 72
    8
 73
    4
 74
    0
 42
1e-07
 43
1e-07
 40
0
 40
0
 40
0
 40
0
 40
1
 40
1
 40
1
 40
1
 10
3.225899999991921
 20
10.80501466663968
 30
0
 10
3.252203999991838
 20
10.8805519999728
 30
0
 10
3.285375999991753
 20
10.95351866663931
 30
0
 10
3.324999999991657
 20
11.02299999997243
 30
0
  0
SPLINE
  5
AD
100
AcDbEntity
  8
0
  6
ByLayer
 62
    7
370
   -1
100
AcDbSpline
210
0
220
0
230
0
 70
    8
 71
    3
 72
    8
 73
    4
 74
    0
 42
1e-07
 43
1e-07
 40
0
 40
0
 40
0
 40
0
 40
1
 40
1
 40
1
 40
1
 10
3.324999999991657
 20
11.02299999997243
 30
0
 10
3.441893333324702
 20
11.23286666663856
 30
0
 10
3.579943999991043
 20
11.43022666663811
 30
0
 10
3.736999999990661
 20
11.61199999997097
 30
0
  0
SPLINE
  5
AE
100
AcDbEntity
  8
0
  6
ByLayer
 62
    7
370
   -1
100
AcDbSpline
210
0
220
0
230
0
 70
    8
 71
    3
 72
    8
 73
    4
 74
    0
 42
1e-07
 43
1e-07
 40
0
 40
0
 40
0
 40
0
 40
1
 40
1
 40
1
 40
1
 10
3.736999999990661
 20
11.61199999997097
 30
0
 10
3.998005333323372
 20
11.91544666663685
 30
0
 10
4.289539999989264
 20
12.1912319999695
 30
0
 10
4.606999999988453
 20
12.43499999996893
 30
0
  0
SPLINE
  5
AF
100
AcDbEntity
  8
0
  6
ByLayer
 62
    7
370
   -1
100
AcDbSpline
210
0
220
0
230
0
 70
    8
 71
    3
 72
    8
 73
    4
 74
    0
 42
1e-07
 43
1e-07
 40
0
 40
0
 40
0
 40
0
 40
1
 40
1
 40
1
 40
1
 10
4.606999999988453
 20
12.43499999996893
 30
0
 10
5.050770666654019
 20
12.77720933330136
 30
0
 10
5.528627999986204
 20
13.07277066663397
 30
0
 10
6.032999999984895
 20
13.31699999996671
 30
0
  0
SPLINE
  5
B0
100
AcDbEntity
  8
0
  6
ByLayer
 62
    7
370
   -1
100
AcDbSpline
210
0
220
0
230
0
 70
    8
 71
    3
 72
    8
 73
    4
 74
    0
 42
1e-07
 43
1e-07
 40
0
 40
0
 40
0
 40
0
 40
1
 40
1
 40
1
 40
1
 10
6.032999999984895
 20
13.31699999996671
 30
0
 10
6.681238666649931
 20
13.63132399996595
 30
0
 10
7.360162666648286
 20
13.87796266663199
 30
0
 10
8.058999999979822
 20
14.0529999999649
 30
0
  0
SPLINE
  5
B1
100
AcDbEntity
  8
0
  6
ByLayer
 62
    7
370
   -1
100
AcDbSpline
210
0
220
0
230
0
 70
    8
 71
    3
 72
    8
 73
    4
 74
    0
 42
1e-07
 43
1e-07
 40
0
 40
0
 40
0
 40
0
 40
1
 40
1
 40
1
 40
1
 10
8.058999999979822
 20
14.0529999999649
 30
0
 10
8.058999999979822
 20
14.0529999999649
 30
0
 10
8.533999999978695
 20
13.76999999996556
 30
0
 10
8.533999999978695
 20
13.76999999996556
 30
0
  0
SPLINE
  5
B2
100
AcDbEntity
  8
0
  6
ByLayer
 62
    7
370
   -1
100
AcDbSpline
210
0
220
0
230
0
 70
    8
 71
    3
 72
    8
 73
    4
 74
    0
 42
1e-07
 43
1e-07
 40
0
 40
0
 40
0
 40
0
 40
1
 40
1
 40
1
 40
1
 10
8.533999999978695
 20
13.76999999996556
 30
0
 10
8.712062666644869
 20
13.07172266663397
 30
0
 10
8.817621333311319
 20
12.35693999996908
 30
0
 10
8.848999999977886
 20
11.63699999997093
 30
0
  0
SPLINE
  5
B3
100
AcDbEntity
  8
0
  6
ByLayer
 62
    7
370
   -1
100
AcDbSpline
210
0
220
0
230
0
 70
    8
 71
    3
 72
    8
 73
    4
 74
    0
 42
1e-07
 43
1e-07
 40
0
 40
0
 40
0
 40
0
 40
1
 40
1
 40
1
 40
1
 10
8.848999999977886
 20
11.63699999997093
 30
0
 10
8.873865333311134
 20
11.07744799997231
 30
0
 10
8.841025333311212
 20
10.51682266664034
 30
0
 10
8.750999999978099
 20
9.963999999975107
 30
0
  0
SPLINE
  5
B4
100
AcDbEntity
  8
0
  6
ByLayer
 62
    7
370
   -1
100
AcDbSpline
210
0
220
0
230
0
 70
    8
 71
    3
 72
    8
 73
    4
 74
    0
 42
1e-07
 43
1e-07
 40
0
 40
0
 40
0
 40
0
 40
1
 40
1
 40
1
 40
1
 10
8.750999999978099
 20
9.963999999975107
 30
0
 10
8.687306666644981
 20
9.568683999976077
 30
0
 10
8.583090666645214
 20
9.180974666643742
 30
0
 10
8.439999999978879
 20
8.806999999977998
 30
0
  0
SPLINE
  5
B5
100
AcDbEntity
  8
0
  6
ByLayer
 62
    7
370
   -1
100
AcDbSpline
210
0
220
0
230
0
 70
    8
 71
    3
 72
    8
 73
    4
 74
    0
 42
1e-07
 43
1e-07
 40
0
 40
0
 40
0
 40
0
 40
1
 40
1
 40
1
 40
1
 10
8.439999999978879
 20
8.806999999977998
 30
0
 10
8.35481733331247
 20
8.58258933331186
 30
0
 10
8.246923999979417
 20
8.367471999979063
 30
0
 10
8.117999999979718
 20
8.164999999979552
 30
0
  0
SPLINE
  5
B6
100
AcDbEntity
  8
0
  6
ByLayer
 62
    7
370
   -1
100
AcDbSpline
210
0
220
0
230
0
 70
    8
 71
    3
 72
    8
 73
    4
 74
    0
 42
1e-07
 43
1e-07
 40
0
 40
0
 40
0
 40
0
 40
1
 40
1
 40
1
 40
1
 10
8.117999999979718
 20
8.164999999979552
 30
0
 10
8.075929333313116
 20
8.097071999979782
 30
0
 10
8.027729333313285
 20
8.03313866664659
 30
0
 10
7.973999999980073
 20
7.973999999980073
 30
0
  0
SPLINE
  5
B7
100
AcDbEntity
  8
0
  6
ByLayer
 62
    7
370
   -1
100
AcDbSpline
210
0
220
0
230
0
 70
    8
 71
    3
 72
    8
 73
    4
 74
    0
 42
1e-07
 43
1e-07
 40
0
 40
0
 40
0
 40
0
 40
1
 40
1
 40
1
 40
1
 10
7.973999999980073
 20
7.973999999980073
 30
0
 10
7.271817333315171
 20
7.430059999981412
 30
0
 10
7.134395999982163
 20
6.424061333317248
 30
0
 10
7.664969333314136
 20
5.711725333319055
 30
0
  0
SPLINE
  5
B8
100
AcDbEntity
  8
0
  6
ByLayer
 62
    7
370
   -1
100
AcDbSpline
210
0
220
0
230
0
 70
    8
 71
    3
 72
    8
 73
    4
 74
    0
 42
1e-07
 43
1e-07
 40
0
 40
0
 40
0
 40
0
 40
1
 40
1
 40
1
 40
1
 10
7.664969333314136
 20
5.711725333319055
 30
0
 10
8.195542666646183
 20
4.999389333320861
 30
0
 10
9.198765333310316
 20
4.842982666654525
 30
0
 10
9.920999999975169
 20
5.359999999986576
 30
0
  0
SPLINE
  5
B9
100
AcDbEntity
  8
0
  6
ByLayer
 62
    7
370
   -1
100
AcDbSpline
210
0
220
0
230
0
 70
    8
 71
    3
 72
    8
 73
    4
 74
    0
 42
1e-07
 43
1e-07
 40
0
 40
0
 40
0
 40
0
 40
1
 40
1
 40
1
 40
1
 10
9.920999999975169
 20
5.359999999986576
 30
0
 10
9.993267999975036
 20
5.39483599998653
 30
0
 10
10.06858399997485
 20
5.422954666653074
 30
0
 10
10.14599999997467
 20
5.443999999986425
 30
0
  0
SPLINE
  5
BA
100
AcDbEntity
  8
0
  6
ByLayer
 62
    7
370
   -1
100
AcDbSpline
210
0
220
0
230
0
 70
    8
 71
    3
 72
    8
 73
    4
 74
    0
 42
1e-07
 43
1e-07
 40
0
 40
0
 40
0
 40
0
 40
1
 40
1
 40
1
 40
1
 10
10.14599999997467
 20
5.443999999986425
 30
0
 10
10.37683066664072
 20
5.509295999986252
 30
0
 10
10.6137266666401
 20
5.550845333319474
 30
0
 10
10.85299999997286
 20
5.567999999986063
 30
0
  0
SPLINE
  5
BB
100
AcDbEntity
  8
0
  6
ByLayer
 62
    7
370
   -1
100
AcDbSpline
210
0
220
0
230
0
 70
    8
 71
    3
 72
    8
 73
    4
 74
    0
 42
1e-07
 43
1e-07
 40
0
 40
0
 40
0
 40
0
 40
1
 40
1
 40
1
 40
1
 10
10.85299999997286
 20
5.567999999986063
 30
0
 10
11.25240799997185
 20
5.598147999986042
 30
0
 10
11.65385733330418
 20
5.587089333319356
 30
0
 10
12.05099999996988
 20
5.534999999986169
 30
0
  0
SPLINE
  5
BC
100
AcDbEntity
  8
0
  6
ByLayer
 62
    7
370
   -1
100
AcDbSpline
210
0
220
0
230
0
 70
    8
 71
    3
 72
    8
 73
    4
 74
    0
 42
1e-07
 43
1e-07
 40
0
 40
0
 40
0
 40
0
 40
1
 40
1
 40
1
 40
1
 10
12.05099999996988
 20
5.534999999986169
 30
0
 10
12.60640799996851
 20
5.463333333319708
 30
0
 10
13.15295866663376
 20
5.334654666653329
 30
0
 10
13.68199999996581
 20
5.150999999987114
 30
0
  0
SPLINE
  5
BD
100
AcDbEntity
  8
0
  6
ByLayer
 62
    7
370
   -1
100
AcDbSpline
210
0
220
0
230
0
 70
    8
 71
    3
 72
    8
 73
    4
 74
    0
 42
1e-07
 43
1e-07
 40
0
 40
0
 40
0
 40
0
 40
1
 40
1
 40
1
 40
1
 10
13.68199999996581
 20
5.150999999987114
 30
0
 10
14.36296133329743
 20
4.915002666654412
 30
0
 10
15.01776133329581
 20
4.609385333321821
 30
0
 10
15.63599999996088
 20
4.238999999989435
 30
0
  0
LWPOLYLINE
  5
BE
100
AcDbEntity
  8
0
  6
ByLayer
 62
    7
370
   -1
100
AcDbPolyline
 90
    2
 70
    0
 43
0
 10
-15.63599999996088
 20
-4.238999999989435
 10
-15.7709999999606
 20
-3.701999999990743
  0
LINE
  5
BF
100
AcDbEntity
  8
drill construct
  6
ByLayer
 62
  256
370
   -1
100
AcDbLine
 10
10.80501466663968
 20
-3.225899999991921
 11
11.27598533330517
 21
-9.999999997464794e-05
  0
CIRCLE
  5
C0
100
AcDbEntity
  8
drill
  6
ByLayer
 62
  256
370
   -1
100
AcDbCircle
 10
11.04049999997243
 20
-1.612999999995948
 40
1.6
  0
CIRCLE
  5
C1
100
AcDbEntity
  8
drill
  6
ByLayer
 62
  256
370
   -1
100
AcDbCircle
 10
14.87066917774513
 20
-2.163651329379732
 40
3.4
  0
CIRCLE
  5
C2
100
AcDbEntity
  8
drill
  6
ByLayer
 62
  256
370
   -1
100
AcDbCircle
 10
14.87066917774513
 20
-2.163651329379732
 40
1.55
  0
LINE
  5
C3
100
AcDbEntity
  8
drill construct
  6
ByLayer
 62
  256
370
   -1
100
AcDbLine
 10
20
 20
-10
 11
20
 21
0
  0
LINE
  5
C4
100
AcDbEntity
  8
drill construct
  6
ByLayer
 62
  256
370
   -1
100
AcDbLine
 10
0
 20
0
 11
20
 21
-11.46943713086167
  0
LINE
  5
C5
100
AcDbEntity
  8
drill construct
  6
ByLayer
 62
  256
370
   -1
100
AcDbLine
 10
0
 20
0
 11
20
 21
-12.39506172839512
  0
LINE
  5
C6
100
AcDbEntity
  8
drill construct
  6
ByLayer
 62
  256
370
   -1
100
AcDbLine
 10
0
 20
0
 11
20
 21
4.694692790564948
  0
LINE
  5
C7
100
AcDbEntity
  8
drill construct
  6
ByLayer
 62
  256
370
   -1
100
AcDbLine
 10
0
 20
0
 11
20
 21
5.422102839600974
  0
CIRCLE
  5
C8
100
AcDbEntity
  8
drill
  6
ByLayer
 62
  256
370
   -1
100
AcDbCircle
 10
16.90054485425538
 20
-5.712148260810143
 40
3.4
  0
CIRCLE
  5
C9
100
AcDbEntity
  8
drill
  6
ByLayer
 62
  256
370
   -1
100
AcDbCircle
 10
16.90054485425538
 20
-5.712148260810143
 40
1.55
  0
CIRCLE
  5
CA
100
AcDbEntity
  8
drill
  6
ByLayer
 62
  256
370
   -1
100
AcDbCircle
 10
17.82833732153041
 20
0.6383122072308964
 40
3.4
  0
CIRCLE
  5
CB
100
AcDbEntity
  8
drill
  6
ByLayer
 62
  256
370
   -1
100
AcDbCircle
 10
17.82833732153041
 20
0.6383122072308964
 40
1.55
  0
LINE
  5
CC
100
AcDbEntity
  8
drill construct
  6
ByLayer
 62
  256
370
   -1
100
AcDbLine
 10
0
 20
0
 11
20
 21
-11.92754196168637
  0
CIRCLE
  5
CD
100
AcDbEntity
  8
drill
  6
ByLayer
 62
  256
370
   -1
100
AcDbCircle
 10
17.25478746494141
 20
4.361917528305618
 40
1.5
  0
LWPOLYLINE
  5
CE
100
AcDbEntity
  8
0
  6
ByLayer
 62
    7
370
   -1
100
AcDbPolyline
 90
    2
 70
    0
 43
0
 10
15.77122404151929
 20
3.701726925489239
 10
15.63594562628627
 20
4.237836756000299
  0
CIRCLE
  5
CF
100
AcDbEntity
  8
mill construct
  6
ByLayer
 62
  256
370
   -1
100
AcDbCircle
 10
16.29365419483822
 20
-7.424200758185087
 40
0.25
  0
LINE
  5
D0
100
AcDbEntity
  8
mill construct
  6
ByLayer
 62
  256
370
   -1
100
AcDbLine
 10
16.04365419483839
 20
-7.424200758185086
 11
16.54365419483804
 21
-7.424200758185085
  0
LINE
  5
D1
100
AcDbEntity
  8
mill construct
  6
ByLayer
 62
  256
370
   -1
100
AcDbLine
 10
16.29365419483822
 20
-7.674200758185149
 11
16.29365419483822
 21
-7.174200758185335
  0
CIRCLE
  5
D2
100
AcDbEntity
  8
mill construct
  6
ByLayer
 62
  256
370
   -1
100
AcDbCircle
 10
17.73661484284752
 20
2.452431005204128
 40
0.25
  0
LINE
  5
D3
100
AcDbEntity
  8
mill construct
  6
ByLayer
 62
  256
370
   -1
100
AcDbLine
 10
17.49706418356777
 20
2.523953600504879
 11
17.97616550212724
 21
2.380908409903379
  0
LINE
  5
D4
100
AcDbEntity
  8
mill construct
  6
ByLayer
 62
  256
370
   -1
100
AcDbLine
 10
17.80813743814833
 20
2.691981664484095
 11
17.66509224754678
 21
2.212880345924459
  0
LINE
  5
D5
100
AcDbEntity
  8
mill construct
  6
ByLayer
 62
  256
370
   -1
100
AcDbLine
 10
16.29365419483822
 20
-7.424200758185087
 11
15.13020279095863
 21
-9.376989877853417
  0
LINE
  5
D6
100
AcDbEntity
  8
mill path
  6
ByLayer
 62
  256
370
   -1
100
AcDbLine
 10
16.29365419483822
 20
-7.424200758185092
 11
15.44115761623802
 21
-8.855069325358388
  0
LINE
  5
D7
100
AcDbEntity
  8
mill path
  6
ByLayer
 62
  256
370
   -1
100
AcDbLine
 10
15.44115761623802
 20
-8.855069325358388
 11
14.0529999999649
 21
-8.058999999979818
  0
LINE
  5
D8
100
AcDbEntity
  8
mill path2
  6
ByLayer
 62
  256
370
   -1
100
AcDbLine
 10
16.29365419483822
 20
-7.424200758185085
 11
15.13020279095863
 21
-9.376989877853417
  0
LINE
  5
D9
100
AcDbEntity
  8
mill path2
  6
ByLayer
 62
  256
370
   -1
100
AcDbLine
 10
15.13020279095863
 20
-9.376989877853417
 11
13.76999999996556
 21
-8.533999999978695
  0
LINE
  5
DA
100
AcDbEntity
  8
mill path2
  6
ByLayer
 62
  256
370
   -1
100
AcDbLine
 10
13.76999999996556
 20
-8.533999999978695
 11
14.0529999999649
 21
-8.058999999979822
  0
CIRCLE
  5
DB
100
AcDbEntity
  8
mill construct
  6
ByLayer
 62
  256
370
   -1
100
AcDbCircle
 10
3.887377936622064
 20
-10.60525460937097
 40
10.47966051313535
  0
CIRCLE
  5
DC
100
AcDbEntity
  8
mill construct
  6
ByLayer
 62
  256
370
   -1
100
AcDbCircle
 10
13.31699999996671
 20
-6.032999999984895
 40
1.6
  0
LINE
  5
DD
100
AcDbEntity
  8
mill construct
  6
ByLayer
 62
  256
370
   -1
100
AcDbLine
 10
3.887377936622064
 20
-10.60525460937097
 11
14.75668359300302
 21
-5.334923247799243
  0
LINE
  5
DE
100
AcDbEntity
  8
mill path2
  6
ByLayer
 62
  256
370
   -1
100
AcDbLine
 10
13.31699999996671
 20
-6.032999999984895
 11
14.75668359300302
 21
-5.334923247799243
  0
LINE
  5
DF
100
AcDbEntity
  8
mill path
  6
ByLayer
 62
  256
370
   -1
100
AcDbLine
 10
17.73661484284751
 20
2.452431005204135
 11
17.32910810693161
 21
4.067384110787326
  0
LINE
  5
E0
100
AcDbEntity
  8
mill path
  6
ByLayer
 62
  256
370
   -1
100
AcDbLine
 10
17.32910810693161
 20
4.067384110787326
 11
15.77122404151929
 21
3.701726925489235
  0
LINE
  5
E1
100
AcDbEntity
  8
mill path2
  6
ByLayer
 62
  256
370
   -1
100
AcDbLine
 10
17.73661484284751
 20
2.452431005204128
 11
17.18046682314493
 21
4.656450945056148
  0
LINE
  5
E2
100
AcDbEntity
  8
mill path2
  6
ByLayer
 62
  256
370
   -1
100
AcDbLine
 10
17.18046682314493
 20
4.656450945056148
 11
15.63594562628627
 21
4.237836756000299
  0
LINE
  5
E3
100
AcDbEntity
  8
mill path2
  6
ByLayer
 62
  256
370
   -1
100
AcDbLine
 10
15.63594562628627
 20
4.237836756000299
 11
15.77122404151929
 21
3.701726925489239
  0
LINE
  5
E4
100
AcDbEntity
  8
mill path2
  6
ByLayer
 62
  256
370
   -1
100
AcDbLine
 10
14.48636778828475
 20
1.970970903254771
 11
15.66616335960813
 21
0.8901922904548254
  0
CIRCLE
  5
E5
100
AcDbEntity
  8
mill path2
  6
ByLayer
 62
  256
370
   -1
100
AcDbCircle
 10
0
 20
0
 40
2.525
  0
CIRCLE
  5
E6
100
AcDbEntity
  8
mill path2
  6
ByLayer
 62
  256
370
   -1
100
AcDbCircle
 10
7.216449660063518e-16
 20
-8.326672684688674e-17
 40
2.4
  0
CIRCLE
  5
E7
100
AcDbEntity
  8
mill path2
  6
ByLayer
 62
  256
370
   -1
100
AcDbCircle
 10
7.216449660063518e-16
 20
-8.326672684688674e-17
 40
2.1
  0
CIRCLE
  5
E8
100
AcDbEntity
  8
mill path2
  6
ByLayer
 62
  256
370
   -1
100
AcDbCircle
 10
7.216449660063518e-16
 20
-8.326672684688674e-17
 40
1.8
  0
CIRCLE
  5
E9
100
AcDbEntity
  8
drill
  6
ByLayer
 62
  256
370
   -1
100
AcDbCircle
 10
7.216449660063518e-16
 20
-8.326672684688674e-17
 40
1.5
  0
CIRCLE
  5
EA
100
AcDbEntity
  8
drill
  6
ByLayer
 62
  256
370
   -1
100
AcDbCircle
 10
6.666603990007877
 20
-8.947111293025765
 40
1.6
  0
ENDSEC
  0
SECTION
  2
OBJECTS
  0
DICTIONARY
  5
C
330
0
100
AcDbDictionary
281
    1
  3
ACAD_GROUP
350
D
  3
ACAD_IMAGE_DICT
350
EB
  0
DICTIONARY
  5
D
330
C
100
AcDbDictionary
281
    1
  0
IMAGEDEF_REACTOR
  5
54
330
55
100
AcDbRasterImageDefReactor
 90
    2
330
55
  0
DICTIONARY
  5
EB
330
C
100
AcDbDictionary
281
    1
  3
svg3
350
53
  0
IMAGEDEF
  5
53
102
{ACAD_REACTORS
330
54
102
}
100
AcDbRasterImageDef
 90
    0
  1
/home/bob/projects/rust/involute/involute_gcode/doc/svg3.dxf
 10
1
 20
1
 11
1
 21
1
280
    1
281
    0
  0
ENDSEC
  0
EOF
